<?xml version="1.0" encoding="UTF-8"?>
<svg version="1.1" xmlns="http://www.w3.org/2000/svg" width="253" height="416">
<path d="M0 0 C0.76983418 -0.0004987 1.53966836 -0.0009974 2.33283085 -0.00151122 C3.15677674 0.00820542 3.98072263 0.01792205 4.82963657 0.02793312 C5.72174841 0.03030782 6.61386025 0.03268253 7.53300577 0.03512919 C10.51023223 0.04551251 13.48715714 0.07038198 16.46429539 0.09522438 C18.60322767 0.10565467 20.74216448 0.11518912 22.88110447 0.12389565 C28.68016884 0.15003664 34.47908997 0.18870426 40.2780664 0.2296195 C46.34120852 0.27026876 52.40440571 0.29939968 58.46760654 0.32975197 C69.94574487 0.38896176 81.42379609 0.45853171 92.90185219 0.5318228 C108.41454669 0.63027768 123.9273257 0.71273101 139.44010735 0.79607964 C163.87672659 0.92779711 188.31316424 1.08089575 212.74969578 1.23047829 C212.74969578 34.23047829 212.74969578 67.23047829 212.74969578 101.23047829 C208.79360481 102.21950103 206.20605122 102.19381196 202.18719578 101.85547829 C201.05153172 101.76524391 199.91586765 101.67500954 198.74578953 101.58204079 C195.74969578 101.23047829 195.74969578 101.23047829 192.74969578 100.23047829 C192.74969578 74.16047829 192.74969578 48.09047829 192.74969578 21.23047829 C132.02969578 21.23047829 71.30969578 21.23047829 8.74969578 21.23047829 C8.74969578 49.94047829 8.74969578 78.65047829 8.74969578 108.23047829 C25.2010961 110.96269922 25.2010961 110.96269922 41.74969578 112.23047829 C42.07969578 93.09047829 42.40969578 73.95047829 42.74969578 54.23047829 C81.02969578 54.23047829 119.30969578 54.23047829 158.74969578 54.23047829 C158.74969578 73.37047829 158.74969578 92.51047829 158.74969578 112.23047829 C135.53541006 121.51619257 135.53541006 121.51619257 127.74969578 124.23047829 C135.39994244 126.11679623 143.11397967 127.19346768 150.91311169 128.23276711 C153.28044897 128.5486454 155.64700032 128.86991168 158.01341343 129.19263649 C164.73477916 130.10843368 171.45729921 131.01555483 178.18060398 131.91700172 C182.30907707 132.47091733 186.43656556 133.03173305 190.56352901 133.59678078 C192.13123727 133.8099709 193.69931461 134.02046523 195.26775646 134.22818947 C197.45578254 134.51806851 199.64245742 134.81666149 201.82904148 135.11719704 C203.07208546 135.28437233 204.31512943 135.45154762 205.59584141 135.62378883 C208.37726854 136.15883653 210.33486454 136.79707114 212.74969578 138.23047829 C212.6820202 145.36174177 212.59196186 152.49248574 212.48724461 159.62330055 C212.45424585 162.04283384 212.42613836 164.46243947 212.40326023 166.88208961 C212.15022756 192.9444544 212.15022756 192.9444544 208.74969578 205.23047829 C208.52580173 206.0504026 208.30190769 206.87032692 208.07122898 207.71509743 C207.46576393 209.7512455 206.79500583 211.73702998 206.06219578 213.73047829 C205.80728367 214.43205055 205.55237156 215.13362282 205.28973484 215.85645485 C194.76572978 243.80730699 173.59152644 265.69379154 146.62909031 278.39893532 C132.20690746 284.7800674 116.92560008 287.81183766 101.18719578 287.73047829 C99.88379246 287.72475807 98.58038914 287.71903786 97.23748875 287.7131443 C68.33742378 287.18507003 43.99445019 275.35945224 22.74969578 256.23047829 C22.08325047 255.64782204 21.41680515 255.06516579 20.73016453 254.46485329 C0.51457479 235.7169059 -9.67866303 207.08135612 -10.85674953 180.24073219 C-11.35230803 166.82862683 -11.35230803 166.82862683 -11.25030422 163.23047829 C-10.25030422 162.23047829 -10.25030422 162.23047829 -8.39263821 162.1169529 C-7.60187893 162.12218971 -6.81111965 162.12742653 -5.99639797 162.13282204 C-4.71539211 162.13765602 -4.71539211 162.13765602 -3.40850735 162.14258766 C-2.51067532 162.15096657 -1.61284328 162.15934547 -0.68780422 162.16797829 C0.213895 162.17249001 1.11559422 162.17700172 2.04461765 162.18165016 C4.27970892 162.19347604 6.51467014 162.20995608 8.74969578 162.23047829 C8.78933445 162.9290696 8.82897312 163.6276609 8.86981297 164.34742165 C10.75499522 196.05441661 17.23721984 223.79420469 42.0094614 245.80127907 C61.87711236 262.11794976 86.4970573 267.99887034 111.74969578 266.23047829 C132.34713085 263.75878608 149.84482672 254.46834804 164.74969578 240.23047829 C165.36457859 239.6903611 165.9794614 239.15024391 166.61297703 238.59375954 C175.30638305 230.65977749 181.56882314 219.11623186 185.74969578 208.23047829 C186.11836765 207.27270485 186.48703953 206.31493141 186.86688328 205.32813454 C192.42852566 189.23184837 192.05092353 172.04902764 191.74969578 155.23047829 C187.6749431 154.65820935 183.59982616 154.08861677 179.52435398 153.52149391 C178.13818365 153.32821809 176.75211476 153.13421322 175.36615086 152.93946266 C173.37317437 152.65954622 171.37979897 152.38247464 169.38641453 152.10547829 C167.58756809 151.8541111 167.58756809 151.8541111 165.75238132 151.59766579 C162.75756839 151.16978721 162.75756839 151.16978721 159.74969578 151.23047829 C159.76016941 151.88419411 159.77064304 152.53790993 159.78143406 153.21143532 C160.11502787 177.22596691 159.23064155 198.59822733 142.00360203 217.13282204 C133.966178 224.61305896 123.38546283 229.67585729 112.74969578 232.23047829 C111.24160033 217.84363437 111.24160033 217.84363437 112.74969578 211.23047829 C115.52042305 208.17866274 117.84827099 207.10955193 121.63250828 205.54688454 C126.37162521 203.54552814 128.84953589 200.36359385 131.74969578 196.23047829 C132.23180515 195.55372047 132.71391453 194.87696266 133.21063328 194.17969704 C141.55274435 180.9914463 138.96636536 163.11567838 138.74969578 148.23047829 C137.77250584 148.08014137 137.77250584 148.08014137 136.77557468 147.92676735 C120.10028172 145.36133766 103.42498875 142.79590797 86.74969578 140.23047829 C86.74969578 133.63047829 86.74969578 127.03047829 86.74969578 120.23047829 C95.75113585 115.72975825 95.75113585 115.72975825 99.35809422 114.32349586 C100.16543003 114.00669365 100.97276585 113.68989143 101.80456638 113.36348915 C102.64755283 113.03729088 103.49053928 112.71109261 104.35907078 112.37500954 C105.24830235 112.02790428 106.13753391 111.68079903 107.05371189 111.32317543 C108.91862087 110.59619282 110.78425334 109.87106366 112.65057468 109.14771461 C115.50711266 108.04010242 118.36096473 106.92577753 121.21453953 105.81055641 C123.03339562 105.10247757 124.85240087 104.39478173 126.67157078 103.68750954 C127.52265415 103.35523857 128.37373753 103.02296761 129.25061131 102.68062782 C130.44270206 102.21960922 130.44270206 102.21960922 131.65887547 101.74927711 C132.35422398 101.47932426 133.04957249 101.20937141 133.76599216 100.93123817 C135.72115544 100.2405604 137.73803583 99.73339327 139.74969578 99.23047829 C139.41969578 91.31047829 139.08969578 83.39047829 138.74969578 75.23047829 C113.66969578 74.90047829 88.58969578 74.57047829 62.74969578 74.23047829 C62.74969578 125.38047829 62.74969578 176.53047829 62.74969578 229.23047829 C59.78948292 227.75037186 58.00375527 226.76601257 55.62078953 224.69922829 C55.06069187 224.21840797 54.50059422 223.73758766 53.9235239 223.24219704 C53.35053562 222.74332985 52.77754734 222.24446266 52.18719578 221.73047829 C47.62547937 217.78150417 47.62547937 217.78150417 42.74969578 214.23047829 C42.43346307 211.63098271 42.31227817 209.26394719 42.31732273 206.65967751 C42.30203526 205.48881096 42.30203526 205.48881096 42.28643894 204.29429054 C42.25618504 201.7078438 42.24702435 199.1217666 42.23797703 196.53516579 C42.22113948 194.74439183 42.20299051 192.95362976 42.18357944 191.16288185 C42.13597272 186.44468843 42.10623258 181.72654317 42.08014011 177.00818825 C42.05038825 172.19546936 42.00383958 167.38291665 41.95868015 162.57032204 C41.87252574 153.12379419 41.80523463 143.67723225 41.74969578 134.23047829 C38.75105267 133.7532085 35.75225307 133.2769602 32.75335789 132.80127907 C31.49532478 132.60088776 31.49532478 132.60088776 30.21187687 132.39644814 C21.32037751 130.98771513 12.40507362 129.78591378 3.48211765 128.59375954 C2.2723325 128.4300486 1.06254734 128.26633766 -0.18389797 128.09766579 C-1.25696194 127.95441872 -2.3300259 127.81117165 -3.43560696 127.66358376 C-6.25030422 127.23047829 -6.25030422 127.23047829 -10.25030422 126.23047829 C-10.58030422 85.31047829 -10.91030422 44.39047829 -11.25030422 2.23047829 C-3.37530422 -0.01952171 -3.37530422 -0.01952171 0 0 Z " fill="#14C5D7" transform="translate(25.250304222106934,70.76952171325684)"/>
<path d="M0 0 C0.66 0 1.32 0 2 0 C3.36938477 1.55371094 3.36938477 1.55371094 4.94140625 3.734375 C5.52108154 4.53093506 6.10075684 5.32749512 6.69799805 6.14819336 C7.31328369 7.00678955 7.92856934 7.86538574 8.5625 8.75 C9.83033206 10.49638211 11.09856135 12.2424759 12.3671875 13.98828125 C13.2967627 15.273396 13.2967627 15.273396 14.24511719 16.58447266 C16.52785761 19.72657529 18.85168913 22.83464893 21.1875 25.9375 C21.86167969 26.83339844 22.53585938 27.72929688 23.23046875 28.65234375 C23.81441406 29.42707031 24.39835937 30.20179687 25 31 C26.00035964 32.33306352 27.00049518 33.66629543 28 35 C29.23273013 33.33596727 30.46097808 31.66861393 31.6875 30 C32.37199219 29.071875 33.05648437 28.14375 33.76171875 27.1875 C35.93894232 24.28082272 35.93894232 24.28082272 36.95678711 21.96618652 C38.10910019 19.64563408 39.19876092 17.87036007 41 16 C44.38036133 14.89331277 47.58698522 15.06329883 51.11328125 15.21875 C52.08283249 15.23006958 53.05238373 15.24138916 54.05131531 15.25305176 C57.14040891 15.29774793 60.2248162 15.39809466 63.3125 15.5 C65.40943805 15.54013588 67.50644904 15.57663647 69.60351562 15.609375 C74.73747574 15.6974614 79.86794421 15.83546032 85 16 C83.4674231 18.44996448 81.91488832 20.87273609 80.30062866 23.27037048 C78.57351717 25.92913216 77.25446804 28.60555078 75.98086548 31.50660706 C73.02239694 37.64898208 69.85852873 43.57297588 63.17369843 46.04526901 C55.22013966 47.61925665 47.13559392 47.43645859 39.06373549 47.25320125 C35.51166363 47.1884073 31.960091 47.21667439 28.40762329 47.23109436 C22.44647289 47.24092928 16.48943058 47.17881712 10.52929688 47.07202148 C3.66088366 46.94974339 -3.2009715 46.93762617 -10.07015955 46.98531049 C-16.70996373 47.02920084 -23.34743966 46.99904623 -29.98701096 46.93429756 C-32.79826995 46.90789455 -35.60789796 46.90610671 -38.41920853 46.92466545 C-61.43326985 47.03302674 -61.43326985 47.03302674 -66.88699341 42.12910461 C-69.55290993 39.05922455 -71.28714905 35.68316814 -73 32 C-74.01848862 30.55325397 -75.064075 29.12407367 -76.1640625 27.73828125 C-76.98667683 26.59801123 -77.80712977 25.45617755 -78.625 24.3125 C-79.27275391 23.42401367 -79.27275391 23.42401367 -79.93359375 22.51757812 C-83 18.23921131 -83 18.23921131 -83 16 C-77.36302118 15.65106791 -71.73244033 15.39870037 -66.0871582 15.23095703 C-64.17263262 15.16099794 -62.25884323 15.06577668 -60.34692383 14.94384766 C-44.90774363 13.98469211 -44.90774363 13.98469211 -40.06842041 17.33874512 C-36.74444003 20.58010447 -34.31129336 24.27269237 -32.01992798 28.28900146 C-30.57410032 30.71447567 -28.81559355 32.84412734 -27 35 C-20.79948877 27.72601525 -15.13508697 20.16275405 -9.60668945 12.37158203 C-6.56306795 8.09640768 -3.53384388 3.88599265 0 0 Z " fill="#17C0D8" transform="translate(126,7)"/>
<path d="M0 0 C1.18613892 0.00785522 1.18613892 0.00785522 2.39624023 0.01586914 C3.67724609 0.02070313 3.67724609 0.02070313 4.98413086 0.02563477 C5.88196289 0.03401367 6.77979492 0.04239258 7.70483398 0.05102539 C8.6065332 0.05553711 9.50823242 0.06004883 10.43725586 0.06469727 C12.67234712 0.07652315 14.90730835 0.09300319 17.14233398 0.11352539 C17.18197266 0.8121167 17.22161133 1.51070801 17.26245117 2.23046875 C18.43868655 22.01364299 19.81492555 41.56527894 30.39233398 58.92602539 C32.31906099 62.43542101 32.90832429 65.13536058 33.14233398 69.11352539 C32.81233398 69.77352539 32.48233398 70.43352539 32.14233398 71.11352539 C32.10234198 73.11312551 32.09886599 75.11399781 32.14233398 77.11352539 C32.80233398 77.11352539 33.46233398 77.11352539 34.14233398 77.11352539 C34.47233398 76.45352539 34.80233398 75.79352539 35.14233398 75.11352539 C35.80233398 75.11352539 36.46233398 75.11352539 37.14233398 75.11352539 C37.47233398 75.77352539 37.80233398 76.43352539 38.14233398 77.11352539 C38.80233398 76.78352539 39.46233398 76.45352539 40.14233398 76.11352539 C40.12170898 76.85602539 40.10108398 77.59852539 40.07983398 78.36352539 C40.03671404 81.04586496 40.03671404 81.04586496 40.70483398 83.30102539 C41.14233398 85.11352539 41.14233398 85.11352539 40.14233398 87.11352539 C41.13233398 87.11352539 42.12233398 87.11352539 43.14233398 87.11352539 C43.63733398 85.62852539 43.63733398 85.62852539 44.14233398 84.11352539 C45.13233398 84.60852539 45.13233398 84.60852539 46.14233398 85.11352539 C45.79086955 90.56122414 45.79086955 90.56122414 45.14233398 93.11352539 C43.14233398 94.48852539 43.14233398 94.48852539 41.14233398 95.11352539 C40.81233398 95.77352539 40.48233398 96.43352539 40.14233398 97.11352539 C39.14233398 96.11352539 39.14233398 96.11352539 39.07983398 93.55102539 C39.10045898 92.74665039 39.12108398 91.94227539 39.14233398 91.11352539 C37.16233398 91.11352539 35.18233398 91.11352539 33.14233398 91.11352539 C33.14233398 89.79352539 33.14233398 88.47352539 33.14233398 87.11352539 C31.82233398 86.78352539 30.50233398 86.45352539 29.14233398 86.11352539 C29.63733398 84.13352539 29.63733398 84.13352539 30.14233398 82.11352539 C29.15233398 82.11352539 28.16233398 82.11352539 27.14233398 82.11352539 C23.80582289 82.11352539 21.23302075 82.06858272 18.63452148 79.79321289 C0.94637653 57.4655545 -3.64296736 28.8147537 -2.85766602 1.11352539 C-1.85766602 0.11352539 -1.85766602 0.11352539 0 0 Z " fill="#11D1D2" transform="translate(16.857666015625,232.886474609375)"/>
<path d="M0 0 C5.63697882 -0.34893209 11.26755967 -0.60129963 16.9128418 -0.76904297 C18.82736738 -0.83900206 20.74115677 -0.93422332 22.65307617 -1.05615234 C38.09225637 -2.01530789 38.09225637 -2.01530789 42.93157959 1.33874512 C46.20731255 4.5330563 48.67379094 8.16260162 50.87236023 12.16110229 C52.36181239 14.59002528 54.22009761 16.77512201 56 19 C58.97 15.37 61.94 11.74 65 8 C65.99 9.485 65.99 9.485 67 11 C66.67 11.99 66.34 12.98 66 14 C65.01 14 64.02 14 63 14 C61.82923301 17.98060777 60.74250597 21.91621717 60 26 C63.98068247 27.30179097 68.02446321 27.17441639 72.16503906 27.20532227 C73.39486511 27.22017166 73.39486511 27.22017166 74.64953613 27.23532104 C77.35486989 27.26686483 80.06022119 27.29166529 82.765625 27.31640625 C84.64321342 27.33698193 86.52079727 27.35797856 88.39837646 27.37937927 C93.3368357 27.43453655 98.2753363 27.4839738 103.21386719 27.53222656 C108.25459468 27.58248792 113.29526221 27.63814979 118.3359375 27.69335938 C128.22390709 27.80086335 138.11192877 27.90232555 148 28 C148 27.01 148 26.02 148 25 C148.99 25.33 149.98 25.66 151 26 C150.01 27.485 150.01 27.485 149 29 C146.76719666 29.40545654 146.76719666 29.40545654 143.92944336 29.44824219 C142.31885796 29.4826088 142.31885796 29.4826088 140.67573547 29.51766968 C139.4923912 29.52730743 138.30904694 29.53694519 137.08984375 29.546875 C135.84740402 29.56819489 134.60496429 29.58951477 133.32487488 29.61148071 C129.19574476 29.67593205 125.06695829 29.71583283 120.9375 29.75 C119.51438249 29.76345664 118.09126643 29.77706803 116.66815186 29.79083252 C110.74393394 29.84622183 104.81975047 29.89389905 98.89532471 29.91995239 C90.41653061 29.95726425 81.9409682 30.03895841 73.46332645 30.18508148 C67.49713437 30.28437368 61.5317952 30.33327686 55.56479549 30.34516144 C52.00395521 30.35349088 48.44639053 30.38307729 44.88644409 30.46618652 C21.51001129 30.98494497 21.51001129 30.98494497 16.09072876 26.16252136 C13.41325655 23.08815226 11.69734971 19.70183906 10 16 C8.98263239 14.55246545 7.93732602 13.12296044 6.8359375 11.73828125 C6.01332317 10.59801123 5.19287023 9.45617755 4.375 8.3125 C3.72724609 7.42401367 3.72724609 7.42401367 3.06640625 6.51757812 C0 2.23921131 0 2.23921131 0 0 Z " fill="#269FE5" transform="translate(43,23)"/>
<path d="M0 0 C0.33 0 0.66 0 1 0 C2.20482904 28.96052024 -9.43170418 55.21149704 -28.33203125 76.64453125 C-47.33770958 96.65880279 -74.42619748 110.31540562 -102.19140625 111.46875 C-104.64822282 111.50285872 -107.1054795 111.51270152 -109.5625 111.5 C-110.86590332 111.49427979 -112.16930664 111.48855957 -113.51220703 111.48266602 C-131.55993814 111.1528902 -152.89436253 107.20885668 -167 95 C-165.515 94.505 -165.515 94.505 -164 94 C-164 94.66 -164 95.32 -164 96 C-163.4225 96.144375 -162.845 96.28875 -162.25 96.4375 C-160.84244568 96.78938858 -159.44330908 97.17957772 -158.0625 97.625 C-155.48800126 98.09309068 -153.51818343 97.62954586 -151 97 C-151 97.66 -151 98.32 -151 99 C-150.34 99.33 -149.68 99.66 -149 100 C-149.33 100.66 -149.66 101.32 -150 102 C-149.4225 101.649375 -148.845 101.29875 -148.25 100.9375 C-145.64198224 99.85082593 -144.60582371 100.06934867 -142 101 C-142 101.99 -142 102.98 -142 104 C-140.41913952 104.36504603 -138.83516093 104.71660506 -137.25 105.0625 C-136.36828125 105.25972656 -135.4865625 105.45695312 -134.578125 105.66015625 C-132.01320972 105.99825872 -130.42908361 105.81158635 -128 105 C-128 105.66 -128 106.32 -128 107 C-127.34 107 -126.68 107 -126 107 C-125.67 106.34 -125.34 105.68 -125 105 C-124.67 105.99 -124.34 106.98 -124 108 C-123.01 107.67 -122.02 107.34 -121 107 C-121 107.66 -121 108.32 -121 109 C-114.07 109 -107.14 109 -100 109 C-99.505 107.02 -99.505 107.02 -99 105 C-98.34 105 -97.68 105 -97 105 C-97 105.66 -97 106.32 -97 107 C-93.7 107 -90.4 107 -87 107 C-87 106.34 -87 105.68 -87 105 C-81.06 104.505 -81.06 104.505 -75 104 C-74.62875 102.5459375 -74.62875 102.5459375 -74.25 101.0625 C-73 98 -73 98 -71.125 97.0625 C-68.8803613 96.99648121 -67.13188198 97.31475222 -65 98 C-64.505 96.515 -64.505 96.515 -64 95 C-62.68 95 -61.36 95 -60 95 C-60 93.35 -60 91.7 -60 90 C-59.01 89.67 -58.02 89.34 -57 89 C-57 89.66 -57 90.32 -57 91 C-53.81483836 90.722426 -50.954807 90.24991836 -48 89 C-46.46579931 86.9953111 -45.4144424 84.95167049 -44.26171875 82.7109375 C-43.84535156 82.14632812 -43.42898437 81.58171875 -43 81 C-39.1875 80.5 -39.1875 80.5 -36 81 C-36.04125 80.05125 -36.0825 79.1025 -36.125 78.125 C-36 75 -36 75 -34 73 C-31.375 72.875 -31.375 72.875 -29 73 C-28.10869587 70.3260876 -27.52268466 67.76276177 -27 65 C-25.68 65.66 -24.36 66.32 -23 67 C-23 66.34 -23 65.68 -23 65 C-22.34 65 -21.68 65 -21 65 C-20.23561208 60.14752145 -20.23561208 60.14752145 -20.0625 55.25 C-20 53 -20 53 -18 50 C-16.824375 49.938125 -16.824375 49.938125 -15.625 49.875 C-12.85643629 49.27118338 -12.85643629 49.27118338 -11.78515625 46.94140625 C-10.78028899 44.64916457 -9.85102445 42.35339164 -9 40 C-9.66 40 -10.32 40 -11 40 C-10.67 39.01 -10.34 38.02 -10 37 C-9.34 37 -8.68 37 -8 37 C-8 36.01 -8 35.02 -8 34 C-7.34 33.67 -6.68 33.34 -6 33 C-3.91630561 28.34233019 -3.59520556 23.70652902 -3.24609375 18.68359375 C-3 16 -3 16 -2.41015625 13.29296875 C-1.90347239 10.46036467 -2.68008594 9.47483886 -4 7 C-3.67 6.01 -3.34 5.02 -3 4 C-2.01 4.495 -2.01 4.495 -1 5 C-1.33 4.01 -1.66 3.02 -2 2 C-1.34 1.34 -0.68 0.68 0 0 Z " fill="#3498DF" transform="translate(236,247)"/>
<path d="M0 0 C1.4540625 0.0309375 1.4540625 0.0309375 2.9375 0.0625 C2.9375 2.7025 2.9375 5.3425 2.9375 8.0625 C0.9575 7.0725 0.9575 7.0725 -1.0625 6.0625 C-1.3925 14.6425 -1.7225 23.2225 -2.0625 32.0625 C-0.7425 32.7225 0.5775 33.3825 1.9375 34.0625 C0.3573632 36.21723199 -1.16896634 38.16896634 -3.0625 40.0625 C-2.876875 41.196875 -2.69125 42.33125 -2.5 43.5 C-2.2834375 45.2634375 -2.2834375 45.2634375 -2.0625 47.0625 C-3.0625 48.0625 -4.0625 49.0625 -5.0625 50.0625 C-5.12666353 52.08365116 -5.18291961 54.10853521 -5.09765625 56.12890625 C-5.05904664 58.25243475 -5.51318849 60.02220009 -6.0625 62.0625 C-5.7325 62.7225 -5.4025 63.3825 -5.0625 64.0625 C-7.0425 64.0625 -9.0225 64.0625 -11.0625 64.0625 C-11.18625 64.68125 -11.31 65.3 -11.4375 65.9375 C-12.0625 68.0625 -12.0625 68.0625 -14.0625 70.0625 C-13.74051034 73.16176819 -13.74051034 73.16176819 -13.0625 76.0625 C-14.7125 76.3925 -16.3625 76.7225 -18.0625 77.0625 C-18.5575 78.5475 -18.5575 78.5475 -19.0625 80.0625 C-19.3925 80.0625 -19.7225 80.0625 -20.0625 80.0625 C-20.248125 81.7640625 -20.248125 81.7640625 -20.4375 83.5 C-20.64375 84.675625 -20.85 85.85125 -21.0625 87.0625 C-22.0525 87.5575 -22.0525 87.5575 -23.0625 88.0625 C-24.5475 87.5675 -24.5475 87.5675 -26.0625 87.0625 C-26.44921875 87.54460937 -26.8359375 88.02671875 -27.234375 88.5234375 C-27.75515625 89.15507812 -28.2759375 89.78671875 -28.8125 90.4375 C-29.32296875 91.06398438 -29.8334375 91.69046875 -30.359375 92.3359375 C-32.15603079 94.15731791 -33.79655736 94.92952868 -36.0625 96.0625 C-36.7225 97.0525 -37.3825 98.0425 -38.0625 99.0625 C-40.51767911 102.15420703 -41.50161736 102.99111494 -45.5 103.5 C-49.90590593 104.19566936 -51.10678809 105.86047876 -54.0625 109.0625 C-55.0525 109.0625 -56.0425 109.0625 -57.0625 109.0625 C-57.0625 109.7225 -57.0625 110.3825 -57.0625 111.0625 C-57.92875 111.02125 -58.795 110.98 -59.6875 110.9375 C-63.22976367 111.06869495 -65.73091364 111.90664351 -69.0625 113.0625 C-71.38944964 113.43781446 -73.72226685 113.78167202 -76.0625 114.0625 C-76.7225 116.0425 -77.3825 118.0225 -78.0625 120.0625 C-79.3825 120.0625 -80.7025 120.0625 -82.0625 120.0625 C-82.0625 119.4025 -82.0625 118.7425 -82.0625 118.0625 C-83.0525 118.0625 -84.0425 118.0625 -85.0625 118.0625 C-85.3925 117.4025 -85.7225 116.7425 -86.0625 116.0625 C-88.52148655 115.98173037 -90.97783742 115.92212857 -93.4375 115.875 C-94.13617188 115.84986328 -94.83484375 115.82472656 -95.5546875 115.79882812 C-97.82997677 115.73271439 -97.82997677 115.73271439 -101.0625 116.0625 C-101.7225 117.0525 -102.3825 118.0425 -103.0625 119.0625 C-103.0625 118.4025 -103.0625 117.7425 -103.0625 117.0625 C-104.0525 117.7225 -105.0425 118.3825 -106.0625 119.0625 C-107.3825 119.0625 -108.7025 119.0625 -110.0625 119.0625 C-110.0625 118.4025 -110.0625 117.7425 -110.0625 117.0625 C-111.0525 117.0625 -112.0425 117.0625 -113.0625 117.0625 C-113.3925 117.7225 -113.7225 118.3825 -114.0625 119.0625 C-115.0625 116.0625 -115.0625 116.0625 -115.0625 113.0625 C-115.805 113.083125 -116.5475 113.10375 -117.3125 113.125 C-120.0625 113.0625 -120.0625 113.0625 -121.94921875 112.5859375 C-124.9200958 111.85008256 -127.8961317 111.68276865 -130.94140625 111.44140625 C-133.0625 111.0625 -133.0625 111.0625 -136.0625 109.0625 C-136.3925 110.0525 -136.7225 111.0425 -137.0625 112.0625 C-138.3825 111.7325 -139.7025 111.4025 -141.0625 111.0625 C-141.0625 110.0725 -141.0625 109.0825 -141.0625 108.0625 C-140.4025 108.0625 -139.7425 108.0625 -139.0625 108.0625 C-139.0625 106.4125 -139.0625 104.7625 -139.0625 103.0625 C-137.24878906 103.76826172 -137.24878906 103.76826172 -135.3984375 104.48828125 C-109.59041903 114.38387195 -84.66723383 116.79696332 -58.625 106.25 C-48.01866697 101.35665143 -39.48365077 95.10680065 -31.0625 87.0625 C-30.44761719 86.52238281 -29.83273438 85.98226562 -29.19921875 85.42578125 C-20.50581273 77.49179921 -14.24337264 65.94825358 -10.0625 55.0625 C-9.69382813 54.10472656 -9.32515625 53.14695312 -8.9453125 52.16015625 C-4.0236656 37.91611977 -3.80410827 22.92987208 -4.04785156 8.00805664 C-4.06170898 7.11594482 -4.07556641 6.22383301 -4.08984375 5.3046875 C-4.10781006 4.5091748 -4.12577637 3.71366211 -4.14428711 2.89404297 C-4.00180218 -0.29676882 -3.22975911 0.06591345 0 0 Z " fill="#349DDB" transform="translate(221.0625,223.9375)"/>
<path d="M0 0 C0.33 1.32 0.66 2.64 1 4 C1.66 4 2.32 4 3 4 C4 8.75 4 8.75 4 11 C4.04125 11.99 4.0825 12.98 4.125 14 C4 17 4 17 2 19 C1.34 18.67 0.68 18.34 0 18 C-0.433125 18.8971875 -0.433125 18.8971875 -0.875 19.8125 C-2 22 -2 22 -4 25 C-3.835 25.78375 -3.67 26.5675 -3.5 27.375 C-2.8918125 30.5679844 -3.60321163 32.12425924 -5 35 C-7.31 35 -9.62 35 -12 35 C-12 34.34 -12 33.68 -12 33 C-14.97 34.98 -17.94 36.96 -21 39 C-20.67 39.99 -20.34 40.98 -20 42 C-21.98 42.495 -21.98 42.495 -24 43 C-24 45.31 -24 47.62 -24 50 C-21.24921116 50.91692961 -19.64051087 51.10886083 -16.8125 51.0625 C-15.554375 51.041875 -14.29625 51.02125 -13 51 C-12.67 48.36 -12.34 45.72 -12 43 C-9.03 43.33 -6.06 43.66 -3 44 C-3.33 42.68 -3.66 41.36 -4 40 C-2.5625 37.25 -2.5625 37.25 -1 35 C-0.38125 35.20625 0.2375 35.4125 0.875 35.625 C1.57625 35.74875 2.2775 35.8725 3 36 C3.66 35.34 4.32 34.68 5 34 C4.67958603 31.39719432 4.67958603 31.39719432 4 29 C4.99 28.34 5.98 27.68 7 27 C8.32 27.66 9.64 28.32 11 29 C12.91588871 21.05329408 12.91588871 21.05329408 12 13 C13.8125 11.9375 13.8125 11.9375 16 11 C16.99 11.33 17.98 11.66 19 12 C17.24665468 25.93607231 9.26484706 38.38086187 -1.66796875 47.13671875 C-9.06752403 52.05907804 -17.34349585 55.92078115 -26 58 C-27.50809545 43.61315608 -27.50809545 43.61315608 -26 37 C-23.22927272 33.94818445 -20.90142478 32.87907365 -17.1171875 31.31640625 C-12.37807057 29.31504985 -9.90015989 26.13311557 -7 22 C-6.51789063 21.32324219 -6.03578125 20.64648438 -5.5390625 19.94921875 C-1.59348302 13.71155408 -0.7508364 7.25061419 0 0 Z " fill="#30A6D6" transform="translate(164,245)"/>
<path d="M0 0 C1.36967597 0.00317922 2.73934476 0.01207066 4.10896206 0.02513981 C4.86119012 0.02836894 5.61341818 0.03159806 6.38844103 0.03492504 C8.92817941 0.04706189 11.46781288 0.06642162 14.00750637 0.08570194 C15.82043634 0.0958382 17.63336883 0.10553258 19.44630337 0.11481571 C24.3841377 0.14136214 29.32191389 0.1741281 34.25970292 0.20796561 C39.41401496 0.2422441 44.56835825 0.27086529 49.72270107 0.30007267 C59.49041883 0.35628877 69.25809747 0.4176326 79.02577251 0.48079401 C90.14285262 0.55243335 101.25996411 0.61839386 112.37708199 0.68386447 C135.25254738 0.81870992 158.12796377 0.96072878 181.00335598 1.10743046 C181.00335598 1.43743046 181.00335598 1.76743046 181.00335598 2.10743046 C120.61335598 2.10743046 60.22335598 2.10743046 -1.99664402 2.10743046 C-1.99664402 30.81743046 -1.99664402 59.52743046 -1.99664402 89.10743046 C14.4547563 91.8396514 14.4547563 91.8396514 31.00335598 93.10743046 C31.33335598 73.96743046 31.66335598 54.82743046 32.00335598 35.10743046 C63.68335598 35.10743046 95.36335598 35.10743046 128.00335598 35.10743046 C128.00335598 35.43743046 128.00335598 35.76743046 128.00335598 36.10743046 C126.96432125 36.11773792 125.92528652 36.12804539 124.85476589 36.1386652 C115.05562561 36.23648556 105.2565476 36.33922767 95.45750904 36.44676971 C90.41991594 36.50189838 85.38231694 36.55530208 80.34466457 36.60474491 C75.48169565 36.65253706 70.61879502 36.70488482 65.75590801 36.76037121 C63.90202062 36.7807276 62.04811456 36.79945152 60.19419384 36.81650448 C57.59454266 36.84069768 54.99501887 36.87073112 52.39544582 36.90210819 C51.63155544 36.90786366 50.86766506 36.91361912 50.08062649 36.91954899 C45.9585534 36.97597995 42.0491303 37.31123831 38.00335598 38.10743046 C38.00335598 37.44743046 38.00335598 36.78743046 38.00335598 36.10743046 C35.82330124 37.45515201 35.82330124 37.45515201 34.00335598 40.10743046 C33.36115677 43.57989472 33.39837401 47.03669927 33.39398098 50.56055546 C33.37744473 51.57591373 33.36090847 52.59127201 33.34387112 53.63739872 C33.29532208 56.87747041 33.27400438 60.11707251 33.25335598 63.35743046 C33.22520215 65.55537084 33.19527556 67.75328928 33.16351223 69.95118046 C33.08956155 75.33651168 33.03795948 80.72171046 33.00335598 86.10743046 C33.66335598 86.10743046 34.32335598 86.10743046 35.00335598 86.10743046 C35.00335598 88.77409712 35.00335598 91.44076379 35.00335598 94.10743046 C34.34335598 94.76743046 33.68335598 95.42743046 33.00335598 96.10743046 C29.87835598 95.86524296 29.87835598 95.86524296 26.00335598 95.23243046 C19.95668897 94.30284542 14.11950355 93.84839362 8.00335598 94.10743046 C8.00335598 93.44743046 8.00335598 92.78743046 8.00335598 92.10743046 C7.43101223 92.2917664 6.85866848 92.47610233 6.26898098 92.66602421 C2.55778419 93.38906772 -0.39425507 92.12810733 -3.99664402 91.10743046 C-4.01976617 79.39016258 -4.03755845 67.67290009 -4.04845619 55.95561409 C-4.0536853 50.51540734 -4.06078345 45.07521614 -4.07208347 39.63501835 C-4.08291137 34.38957344 -4.08892064 29.14414353 -4.09152126 23.89868832 C-4.09337569 21.892721 -4.09699664 19.88675454 -4.10237408 17.88079357 C-4.10958321 15.08140221 -4.11063502 12.28207367 -4.11016941 9.4826746 C-4.11376469 8.64470341 -4.11735996 7.80673222 -4.12106419 6.94336796 C-4.10874977 0.14729974 -4.10874977 0.14729974 0 0 Z " fill="#2ED1D0" transform="translate(35.996644020080566,89.89256954193115)"/>
<path d="M0 0 C3.87426466 3.87426466 6.26579273 7.46467376 6.6953125 13.03125 C6.38416988 19.10768242 4.942064 22.36784744 0.5 26.5 C-4.39955942 29.58215234 -9.92071231 29.08335716 -15.5 28.5 C-20.33281559 26.42879332 -22.7741 23.49509412 -24.8671875 18.78125 C-26.20520547 13.95777783 -25.89612162 9.01301892 -23.4453125 4.6015625 C-17.61538354 -2.82163897 -8.39567854 -3.59814795 0 0 Z M-17.5 5.5 C-20.23452784 8.59913155 -20.74280806 10.97979811 -20.5625 15 C-20.04863168 18.30975403 -19.328157 20.25403323 -16.875 22.5625 C-12.9415799 24.8205745 -10.96335739 25.14921562 -6.5 24.5 C-3.45260312 23.18407862 -1.8133081 21.85508251 0.375 19.375 C2.00229587 15.216355 1.6426107 11.77480225 0.5 7.5 C-1.20434725 4.65942125 -2.40831642 3.7917958 -5.58984375 2.94140625 C-10.4262305 2.16082469 -13.65931938 2.11116416 -17.5 5.5 Z " fill="#96B7DD" transform="translate(169.5,372.5)"/>
<path d="M0 0 C3.42379762 3.00879185 6.83286748 6.31745434 7.265625 11.01953125 C7.38574226 17.69604918 6.55900141 21.00393592 2.0625 26.0625 C-1.8966133 29.52672414 -6.27643656 29.08396048 -11.27734375 29.03125 C-16.5088278 28.60105454 -19.59118808 25.63685648 -22.9375 21.8125 C-24.66562003 16.62813992 -24.88230491 10.98555129 -22.6875 5.9375 C-16.70349612 -1.32879042 -9.10303284 -3.67994945 0 0 Z M-16.9375 5.8125 C-19.29607464 8.84495311 -19.29683916 12.07315814 -19.19140625 15.84765625 C-18.81392532 18.76877792 -17.79608628 20.55564524 -15.9375 22.8125 C-12.51573311 25.37882517 -9.09109579 25.17685051 -4.9375 24.8125 C-2.14848427 23.57293745 -0.49399413 22.52799246 1.375 20.125 C2.41400926 16.63015067 2.75414143 13.38027412 2.0625 9.8125 C0.3149257 6.79160019 -1.76967766 4.39641117 -4.9375 2.8125 C-9.90817782 2.4373545 -12.98901502 2.65371201 -16.9375 5.8125 Z " fill="#9AB8DE" transform="translate(62.9375,372.1875)"/>
<path d="M0 0 C4.11112284 2.01949894 6.52267145 4.20142956 9 8 C10.41184665 12.97105286 10.57417907 17.62088907 8.4375 22.375 C6.17645581 26.13579404 4.11699132 28.23557515 0 30 C-5.56121107 30.73334651 -10.30958187 30.72446491 -15.5 28.5 C-19.24680301 24.75319699 -21.78502725 21.09875355 -22.16015625 15.69140625 C-21.80361195 10.53455821 -20.41857615 6.98833884 -17 3 C-11.58575395 -0.90459397 -6.46170091 -0.796768 0 0 Z M-15.875 9.125 C-17.50646239 13.29429277 -17.37673361 16.7467392 -16 21 C-14.19495817 23.61399034 -12.8901436 24.34084349 -10 26 C-6.11630237 26.54508037 -3.84340629 26.36419817 -0.25 24.8125 C2.46372362 22.62644486 3.72125385 21.26790683 5 18 C5.30463054 14.10356291 5.09836576 10.59060995 2.83203125 7.30859375 C0.16341667 4.79737735 -1.96704853 4.00462477 -5.5625 3.5 C-10.30722599 4.19014196 -12.71960386 5.54888437 -15.875 9.125 Z " fill="#97B7DB" transform="translate(229,371)"/>
<path d="M0 0 C2.536875 -0.103125 5.07375 -0.20625 7.6875 -0.3125 C8.47729248 -0.35802002 9.26708496 -0.40354004 10.08081055 -0.45043945 C14.13749332 -0.52994202 15.62687073 -0.28412596 18.98046875 2.26953125 C21.44211454 5.59775254 21.73283488 7.09132267 21.5078125 11.07421875 C20.67090174 14.24804185 18.40331707 15.89709756 16 18 C16 21.40037669 16.48956196 21.9768533 18.5 24.5625 C21 27.79166667 21 27.79166667 21 30 C18.375 30.5625 18.375 30.5625 15 30 C12.30767599 26.99842256 9 23.17107607 9 19 C8.01 19 7.02 19 6 19 C5.67 22.63 5.34 26.26 5 30 C3.35 30 1.7 30 0 30 C0 20.1 0 10.2 0 0 Z M5 4 C5 7.3 5 10.6 5 14 C9.50901363 14.17957899 9.50901363 14.17957899 14 14 C16.31563087 12.11499729 16.31563087 12.11499729 16.25 9 C16.31563087 5.88500271 16.31563087 5.88500271 14 4 C10.98173347 3.72759327 8.03629378 3.91324875 5 4 Z " fill="#9BBCE1" transform="translate(74,371)"/>
<path d="M0 0 C1.4540625 0.0309375 1.4540625 0.0309375 2.9375 0.0625 C2.9375 2.7025 2.9375 5.3425 2.9375 8.0625 C1.6175 7.4025 0.2975 6.7425 -1.0625 6.0625 C-1.3925 14.6425 -1.7225 23.2225 -2.0625 32.0625 C-0.7425 32.7225 0.5775 33.3825 1.9375 34.0625 C0.3573632 36.21723199 -1.16896634 38.16896634 -3.0625 40.0625 C-2.876875 41.196875 -2.69125 42.33125 -2.5 43.5 C-2.355625 44.675625 -2.21125 45.85125 -2.0625 47.0625 C-3.0625 48.0625 -4.0625 49.0625 -5.0625 50.0625 C-5.12666353 52.08365116 -5.18291961 54.10853521 -5.09765625 56.12890625 C-5.05904664 58.25243475 -5.51318849 60.02220009 -6.0625 62.0625 C-5.7325 62.7225 -5.4025 63.3825 -5.0625 64.0625 C-7.0425 64.0625 -9.0225 64.0625 -11.0625 64.0625 C-11.18625 64.68125 -11.31 65.3 -11.4375 65.9375 C-12.0625 68.0625 -12.0625 68.0625 -14.0625 70.0625 C-13.74051034 73.16176819 -13.74051034 73.16176819 -13.0625 76.0625 C-15.5375 76.5575 -15.5375 76.5575 -18.0625 77.0625 C-18.3925 78.0525 -18.7225 79.0425 -19.0625 80.0625 C-19.3925 80.0625 -19.7225 80.0625 -20.0625 80.0625 C-20.18625 81.196875 -20.31 82.33125 -20.4375 83.5 C-20.64375 84.675625 -20.85 85.85125 -21.0625 87.0625 C-22.0525 87.5575 -22.0525 87.5575 -23.0625 88.0625 C-24.0525 87.7325 -25.0425 87.4025 -26.0625 87.0625 C-28.0425 89.3725 -30.0225 91.6825 -32.0625 94.0625 C-32.7225 93.7325 -33.3825 93.4025 -34.0625 93.0625 C-32.52411589 89.35227949 -30.87181459 86.73810472 -27.9375 84.0625 C-19.86923446 76.33611012 -14.03439977 65.40415014 -10.0625 55.0625 C-9.69382813 54.10472656 -9.32515625 53.14695312 -8.9453125 52.16015625 C-4.0236656 37.91611977 -3.80410827 22.92987208 -4.04785156 8.00805664 C-4.06170898 7.11594482 -4.07556641 6.22383301 -4.08984375 5.3046875 C-4.11679321 4.11141846 -4.11679321 4.11141846 -4.14428711 2.89404297 C-4.00180218 -0.29676882 -3.22975911 0.06591345 0 0 Z " fill="#3697D9" transform="translate(221.0625,223.9375)"/>
<path d="M0 0 C2.536875 -0.103125 5.07375 -0.20625 7.6875 -0.3125 C8.47729248 -0.35802002 9.26708496 -0.40354004 10.08081055 -0.45043945 C14.13749332 -0.52994202 15.62687073 -0.28412596 18.98046875 2.26953125 C21.43546068 5.58875632 21.7732553 7.08714501 21.46484375 11.06640625 C20.58173044 14.73986077 19.13936419 15.9686467 16 18 C12.27859841 18.70037614 8.8070673 18.86239516 5 19 C5 22.63 5 26.26 5 30 C3.35 30 1.7 30 0 30 C0 20.1 0 10.2 0 0 Z M5 4 C5 7.3 5 10.6 5 14 C9.50901363 14.17957899 9.50901363 14.17957899 14 14 C16.31563087 12.11499729 16.31563087 12.11499729 16.25 9 C16.31563087 5.88500271 16.31563087 5.88500271 14 4 C10.98173347 3.72759327 8.03629378 3.91324875 5 4 Z " fill="#96B8DF" transform="translate(15,371)"/>
<path d="M0 0 C0.33 0 0.66 0 1 0 C2.26042471 30.29687547 -10.530613 57.33875074 -30.6875 79.3125 C-33.4385752 81.99504308 -35.14972044 83.53107205 -39.0625 83.5625 C-40.5165625 83.2840625 -40.5165625 83.2840625 -42 83 C-42 83.66 -42 84.32 -42 85 C-42.66 85 -43.32 85 -44 85 C-43.67 83.68 -43.34 82.36 -43 81 C-40.69 81 -38.38 81 -36 81 C-36.061875 79.576875 -36.061875 79.576875 -36.125 78.125 C-36 75 -36 75 -34 73 C-31.375 72.875 -31.375 72.875 -29 73 C-28.10869587 70.3260876 -27.52268466 67.76276177 -27 65 C-25.68 65.66 -24.36 66.32 -23 67 C-23 66.34 -23 65.68 -23 65 C-22.34 65 -21.68 65 -21 65 C-20.23561208 60.14752145 -20.23561208 60.14752145 -20.0625 55.25 C-20 53 -20 53 -18 50 C-17.21625 49.95875 -16.4325 49.9175 -15.625 49.875 C-12.85643629 49.27118338 -12.85643629 49.27118338 -11.78515625 46.94140625 C-10.78028899 44.64916457 -9.85102445 42.35339164 -9 40 C-9.66 40 -10.32 40 -11 40 C-10.67 39.01 -10.34 38.02 -10 37 C-9.34 37 -8.68 37 -8 37 C-8 36.01 -8 35.02 -8 34 C-7.34 33.67 -6.68 33.34 -6 33 C-3.91630561 28.34233019 -3.59520556 23.70652902 -3.24609375 18.68359375 C-3 16 -3 16 -2.41015625 13.29296875 C-1.90347239 10.46036467 -2.68008594 9.47483886 -4 7 C-3.67 6.01 -3.34 5.02 -3 4 C-2.34 4.33 -1.68 4.66 -1 5 C-1.495 3.515 -1.495 3.515 -2 2 C-1.34 1.34 -0.68 0.68 0 0 Z " fill="#3B91D9" transform="translate(236,247)"/>
<path d="M0 0 C25.41 0 50.82 0 77 0 C77 0.33 77 0.66 77 1 C51.92 1 26.84 1 1 1 C1 52.15 1 103.3 1 156 C-2.4072219 154.29638905 -4.48035706 152.86767864 -7.25 150.375 C-7.95640625 149.74335938 -8.6628125 149.11171875 -9.390625 148.4609375 C-9.92171875 147.97882813 -10.4528125 147.49671875 -11 147 C-8 147 -8 147 -1 151 C-0.67 101.17 -0.34 51.34 0 0 Z " fill="#3EBDC3" transform="translate(87,144)"/>
<path d="M0 0 C1.98 0 3.96 0 6 0 C3.53721199 2.46278801 1.29323018 2.99771255 -2 4 C5.65024666 5.88631794 13.36428389 6.9629894 21.16341591 8.00228882 C23.5307532 8.31816711 25.89730454 8.63943339 28.26371765 8.9621582 C34.98508338 9.87795539 41.70760343 10.78507655 48.4309082 11.68652344 C52.55938129 12.24043905 56.68686978 12.80125476 60.81383324 13.36630249 C62.38154149 13.57949261 63.94961883 13.78998695 65.51806068 13.99771118 C67.70608676 14.28759022 69.89276164 14.5861832 72.0793457 14.88671875 C73.32238968 15.05389404 74.56543365 15.22106934 75.84614563 15.39331055 C78.62757276 15.92835824 80.58516876 16.56659285 83 18 C82.67 20.31 82.34 22.62 82 25 C80.35 24.67 78.7 24.34 77 24 C77 22.35 77 20.7 77 19 C69.25117444 16.86239295 62.00499407 16.82056053 54 17 C50.04626309 17 48.11152655 16.39801028 44.5 15 C38.20690188 12.79896568 32.60664282 12.57829939 26 13 C26.33 12.01 26.66 11.02 27 10 C25.783125 10.20625 24.56625 10.4125 23.3125 10.625 C20.59384664 11.08578871 19.27413163 11.11655257 16.703125 10.0234375 C13.15857328 8.68142514 10.21316353 8.88001864 6.4375 9 C-1.27368483 9.2445569 -1.27368483 9.2445569 -5 7 C-5.66 7 -6.32 7 -7 7 C-7 6.01 -7 5.02 -7 4 C-7.99 3.67 -8.98 3.34 -10 3 C-10 2.34 -10 1.68 -10 1 C-6.7 1.33 -3.4 1.66 0 2 C0 1.34 0 0.68 0 0 Z " fill="#38ACCF" transform="translate(155,191)"/>
<path d="M0 0 C0.33 0 0.66 0 1 0 C1 33 1 66 1 100 C-2.95609097 100.98902274 -5.54364456 100.96333368 -9.5625 100.625 C-10.69816406 100.53476563 -11.83382812 100.44453125 -13.00390625 100.3515625 C-16 100 -16 100 -19 99 C-19 72.93 -19 46.86 -19 20 C-18.67 20 -18.34 20 -18 20 C-17.67 45.08 -17.34 70.16 -17 96 C-14.36 96 -11.72 96 -9 96 C-9 96.66 -9 97.32 -9 98 C-6.36 98 -3.72 98 -1 98 C-0.67 65.66 -0.34 33.32 0 0 Z " fill="#36A1C1" transform="translate(237,72)"/>
<path d="M0 0 C2.91879192 2.83034368 5.6610837 5.72931636 8.3125 8.8125 C9.53817679 10.21139878 10.76740483 11.60719329 12 13 C12.58394531 13.66386719 13.16789062 14.32773437 13.76953125 15.01171875 C18.73436403 20.33192904 24.19400273 23.8081084 30.4375 27.43359375 C31.7059375 28.20896484 31.7059375 28.20896484 33 29 C33 29.33 33 29.66 33 30 C30.03 30.33 27.06 30.66 24 31 C23.505 28.525 23.505 28.525 23 26 C19.05272412 25.82057837 16.4019487 25.90649311 13 28 C13 25.69 13 23.38 13 21 C12.34 21.66 11.68 22.32 11 23 C10.01 23 9.02 23 8 23 C8.020625 22.2575 8.04125 21.515 8.0625 20.75 C8.00671312 18.29537721 7.6930096 16.33890739 7 14 C6.01 14.495 6.01 14.495 5 15 C5 13.68 5 12.36 5 11 C4.34 11 3.68 11 3 11 C2.67 11.99 2.34 12.98 2 14 C1.01 13.67 0.02 13.34 -1 13 C-1.10834375 8.55790643 -0.70173653 4.38585329 0 0 Z " fill="#15C6D6" transform="translate(49,297)"/>
<path d="M0 0 C5.61 0 11.22 0 17 0 C17 1.32 17 2.64 17 4 C12.71 4 8.42 4 4 4 C4 6.97 4 9.94 4 13 C7.63 13 11.26 13 15 13 C14.67 14.32 14.34 15.64 14 17 C10.7 17 7.4 17 4 17 C4 21.29 4 25.58 4 30 C2.68 30 1.36 30 0 30 C0 20.1 0 10.2 0 0 Z " fill="#92B7E1" transform="translate(125,371)"/>
<path d="M0 0 C6.6 0 13.2 0 20 0 C20 1.32 20 2.64 20 4 C17.36 4 14.72 4 12 4 C12.33 4.66 12.66 5.32 13 6 C13.08471364 7.81341842 13.10721083 9.62994161 13.09765625 11.4453125 C13.09443359 12.52167969 13.09121094 13.59804688 13.08789062 14.70703125 C13.07951172 15.83496094 13.07113281 16.96289062 13.0625 18.125 C13.05798828 19.26066406 13.05347656 20.39632813 13.04882812 21.56640625 C13.03701615 24.37765638 13.02054507 27.1888023 13 30 C11.35 30 9.7 30 8 30 C8 21.42 8 12.84 8 4 C5.36 4 2.72 4 0 4 C0 2.68 0 1.36 0 0 Z " fill="#91B6DC" transform="translate(100,371)"/>
<path d="M0 0 C1.65 0 3.3 0 5 0 C5 8.58 5 17.16 5 26 C8.3 26.33 11.6 26.66 15 27 C15 27.99 15 28.98 15 30 C10.05 30 5.1 30 0 30 C0 20.1 0 10.2 0 0 Z " fill="#98B5DA" transform="translate(180,371)"/>
<path d="M0 0 C1.31244186 0.00703949 2.62488373 0.01407898 3.97709656 0.02133179 C5.4193124 0.03431187 6.86152734 0.04739199 8.30374146 0.06056213 C9.83169774 0.0707131 11.35965713 0.08040588 12.88761902 0.0896759 C17.02560439 0.11607503 21.1635171 0.14887099 25.30144644 0.1828258 C29.62958856 0.21725014 33.95776947 0.24577712 38.28594971 0.27493286 C46.47749693 0.33100771 54.66899556 0.39237709 62.86048996 0.4556542 C72.18811361 0.5274494 81.51577609 0.59333383 90.84344649 0.65872467 C110.0270394 0.79334188 129.21057105 0.93537248 148.39407349 1.08229065 C148.39407349 1.41229065 148.39407349 1.74229065 148.39407349 2.08229065 C127.71486068 2.21278898 107.03564721 2.34317984 86.35643291 2.47344208 C76.75512854 2.53392501 67.15382438 2.59444336 57.55252075 2.65504456 C49.18587389 2.7078528 40.81922662 2.76059513 32.45257884 2.81325769 C28.02085738 2.84115479 23.58913614 2.86908532 19.15741539 2.89709473 C14.98868612 2.92344093 10.8199563 2.94969921 6.65122604 2.97588921 C5.11894396 2.9855314 3.58666208 2.99520609 2.05438042 3.00491524 C-0.03338188 3.01813933 -2.12114487 3.03124783 -4.20890808 3.04432678 C-5.37866338 3.05170113 -6.54841867 3.05907547 -7.7536211 3.06667328 C-9.70436728 3.0773543 -11.6551511 3.08229065 -13.60592651 3.08229065 C-13.27592651 2.42229065 -12.94592651 1.76229065 -12.60592651 1.08229065 C-8.38332048 0.09445023 -4.32220723 -0.03152339 0 0 Z " fill="#1DDBC8" transform="translate(27.605926513671875,70.91770935058594)"/>
<path d="M0 0 C2 2 2 2 2.20254517 5.54336548 C2.19054305 7.10015195 2.16718476 8.65687366 2.13525391 10.21337891 C2.12579239 11.0622316 2.11633087 11.91108429 2.10658264 12.78565979 C2.07282692 15.59950951 2.02473327 18.41292563 1.9765625 21.2265625 C1.95040341 23.17425392 1.92513577 25.1219575 1.90072632 27.06967163 C1.83399658 32.20234535 1.75512091 37.33476414 1.67376709 42.46722412 C1.59292374 47.70200801 1.52349592 52.93694171 1.453125 58.171875 C1.31329452 68.44809627 1.16064013 78.72408445 1 89 C1.89307861 89.11069824 2.78615723 89.22139648 3.70629883 89.33544922 C7.02258997 89.75033639 10.33781824 90.1723137 13.65258789 90.59912109 C15.08679724 90.78230823 16.52137038 90.96267034 17.95629883 91.14013672 C20.02006795 91.3958755 22.08231084 91.66178106 24.14453125 91.9296875 C25.38565674 92.08679199 26.62678223 92.24389648 27.90551758 92.40576172 C31 93 31 93 34 95 C32.58344207 95.0272415 31.16672955 95.04650467 29.75 95.0625 C28.56664062 95.07990234 28.56664062 95.07990234 27.359375 95.09765625 C25 95 25 95 23.03125 94.5 C20.55120789 93.8895281 18.30055357 93.90394008 15.75 93.9375 C14.85796875 93.94652344 13.9659375 93.95554687 13.046875 93.96484375 C12.37140625 93.97644531 11.6959375 93.98804688 11 94 C11 93.34 11 92.68 11 92 C10.42765625 92.18433594 9.8553125 92.36867188 9.265625 92.55859375 C5.55442821 93.28163726 2.60238895 92.02067687 -1 91 C-1.02312215 79.28273212 -1.04091443 67.56546963 -1.05181217 55.84818363 C-1.05704128 50.40797688 -1.06413943 44.96778569 -1.07543945 39.52758789 C-1.08626735 34.28214298 -1.09227662 29.03671308 -1.09487724 23.79125786 C-1.09673167 21.78529054 -1.10035262 19.77932408 -1.10573006 17.77336311 C-1.11293919 14.97397176 -1.113991 12.17464321 -1.11352539 9.37524414 C-1.11712067 8.53727295 -1.12071594 7.69930176 -1.12442017 6.8359375 C-1.11405216 1.11405216 -1.11405216 1.11405216 0 0 Z " fill="#1FD9C5" transform="translate(33,90)"/>
<path d="M0 0 C1.875 0.1875 1.875 0.1875 4 1 C5.1328125 3.55078125 5.1328125 3.55078125 6 6 C7.00482422 5.99476318 8.00964844 5.98952637 9.04492188 5.98413086 C38.01357914 5.84948196 66.97180414 6.12192001 95.9375 6.5 C96.85389252 6.51195782 97.77028503 6.52391563 98.71444702 6.53623581 C110.14303394 6.6858272 121.5715466 6.84053887 133 7 C133 6.01 133 5.02 133 4 C133.99 4.33 134.98 4.66 136 5 C135.34 5.99 134.68 6.98 134 8 C131.75323009 8.38590336 131.75323009 8.38590336 128.89579773 8.40113831 C127.81484833 8.41393326 126.73389893 8.42672821 125.62019348 8.43991089 C123.83339424 8.43787155 123.83339424 8.43787155 122.01049805 8.43579102 C120.13479126 8.45090477 120.13479126 8.45090477 118.22119141 8.46632385 C114.78496681 8.48999176 111.3492859 8.49985952 107.91301703 8.50177121 C105.04529501 8.50461726 102.17762537 8.51565109 99.30992347 8.5262875 C92.54293315 8.55073476 85.7760626 8.55803917 79.0090332 8.5559082 C72.02875861 8.55410686 65.04918036 8.5857374 58.06908196 8.63313919 C52.07747235 8.67237803 46.08609013 8.68845935 40.09435302 8.68654197 C36.51525125 8.68577713 32.93676762 8.69432141 29.35779381 8.72607613 C25.3639415 8.76054219 21.37164539 8.74687336 17.37768555 8.72875977 C15.59999535 8.75404755 15.59999535 8.75404755 13.78639221 8.77984619 C5.98232357 8.68970352 5.98232357 8.68970352 3.12827492 6.68583488 C1.28424204 4.5728 0 2.87178726 0 0 Z " fill="#44A5D0" transform="translate(58,44)"/>
<path d="M0 0 C1.65 0 3.3 0 5 0 C5 9.9 5 19.8 5 30 C3.35 30 1.7 30 0 30 C0 20.1 0 10.2 0 0 Z " fill="#91B5DF" transform="translate(198,371)"/>
<path d="M0 0 C0 -0.66 0 -1.32 0 -2 C0.66 -2 1.32 -2 2 -2 C2.7658028 0.77603517 3 3.10673188 3 6 C-5.00694114 5.4017071 -13.00605711 4.7529365 -21 4 C-21.33 4.66 -21.66 5.32 -22 6 C-22.66 6 -23.32 6 -24 6 C-23.875 3.6875 -23.875 3.6875 -23 1 C-16.58666746 -3.89438536 -7.10398334 -3.0719928 0 0 Z " fill="#22A9E1" transform="translate(205,218)"/>
<path d="M0 0 C14.52 0 29.04 0 44 0 C41 5 41 5 38.8125 5.8125 C38.214375 5.874375 37.61625 5.93625 37 6 C36.67 7.32 36.34 8.64 36 10 C35.34 10 34.68 10 34 10 C33.505 6.535 33.505 6.535 33 3 C28.78250781 2.92580866 24.56536189 2.8713796 20.34741211 2.83520508 C18.91277448 2.82012411 17.47818292 2.7996562 16.04370117 2.77368164 C13.98084141 2.73726563 11.91859142 2.72026757 9.85546875 2.70703125 C7.99378052 2.68346558 7.99378052 2.68346558 6.09448242 2.65942383 C2.73449566 3.02922119 2.04819565 3.463681 0 6 C-0.66 6 -1.32 6 -2 6 C-1.49396008 3.83125748 -1.00016187 2.00032373 0 0 Z " fill="#2ECDC0" transform="translate(167,23)"/>
<path d="M0 0 C1.81371094 0.70576172 1.81371094 0.70576172 3.6640625 1.42578125 C13.37147002 5.13951341 22.72527493 8.24005525 33 10 C33 10.66 33 11.32 33 12 C34.65 12 36.3 12 38 12 C37.34 13.32 36.68 14.64 36 16 C36 15.34 36 14.68 36 14 C35.01 14.66 34.02 15.32 33 16 C31.68 16 30.36 16 29 16 C29 15.34 29 14.68 29 14 C28.01 14 27.02 14 26 14 C25.67 14.66 25.34 15.32 25 16 C24 13 24 13 24 10 C23.2575 10.020625 22.515 10.04125 21.75 10.0625 C19 10 19 10 17.11328125 9.5234375 C14.1424042 8.78758256 11.1663683 8.62026865 8.12109375 8.37890625 C6 8 6 8 3 6 C2.67 6.99 2.34 7.98 2 9 C0.68 8.67 -0.64 8.34 -2 8 C-2 7.01 -2 6.02 -2 5 C-1.34 5 -0.68 5 0 5 C0 3.35 0 1.7 0 0 Z " fill="#27B3D7" transform="translate(82,327)"/>
<path d="M0 0 C-0.33 1.32 -0.66 2.64 -1 4 C-0.01 4.33 0.98 4.66 2 5 C2 6.32 2 7.64 2 9 C2.61875 8.814375 3.2375 8.62875 3.875 8.4375 C6 8 6 8 8 9 C8.625 11.5625 8.625 11.5625 9 14 C10.32 13.01 11.64 12.02 13 11 C13.66 11.33 14.32 11.66 15 12 C13.73046875 13.49739583 12.4609375 14.99479167 11.19140625 16.4921875 C9.9121848 18.00594079 9.9121848 18.00594079 9 20 C-5.14893617 7.23404255 -5.14893617 7.23404255 -11 0 C-10.38253906 -0.15082031 -9.76507813 -0.30164063 -9.12890625 -0.45703125 C-6.99628031 -0.97375279 -6.99628031 -0.97375279 -4.9375 -1.6875 C-3 -2 -3 -2 0 0 Z " fill="#20BDD6" transform="translate(48,315)"/>
<path d="M0 0 C0.33 0.66 0.66 1.32 1 2 C2.85744207 2.61067144 2.85744207 2.61067144 5 3 C5.639375 3.20625 6.27875 3.4125 6.9375 3.625 C9.51199874 4.09309068 11.48181657 3.62954586 14 3 C14 3.66 14 4.32 14 5 C14.66 5.33 15.32 5.66 16 6 C15.67 6.66 15.34 7.32 15 8 C15.86625 7.4740625 15.86625 7.4740625 16.75 6.9375 C19.35801776 5.85082593 20.39417629 6.06934867 23 7 C23 7.99 23 8.98 23 10 C24.58086048 10.36504603 26.16483907 10.71660506 27.75 11.0625 C28.63171875 11.25972656 29.5134375 11.45695312 30.421875 11.66015625 C32.98679028 11.99825872 34.57091639 11.81158635 37 11 C37 11.66 37 12.32 37 13 C37.66 13 38.32 13 39 13 C39.33 12.34 39.66 11.68 40 11 C40.495 12.485 40.495 12.485 41 14 C41.99 13.67 42.98 13.34 44 13 C44 13.66 44 14.32 44 15 C40.84381665 16.9057804 39.15462986 17.17631218 35.578125 16.34765625 C34.72476563 16.15163818 33.87140625 15.95562012 32.9921875 15.75366211 C32.08726563 15.52557861 31.18234375 15.29749512 30.25 15.0625 C29.31929687 14.83377197 28.38859375 14.60504395 27.4296875 14.36938477 C16.97529199 11.66896428 6.27258886 8.16017634 -2 1 C-1.34 0.67 -0.68 0.34 0 0 Z " fill="#2AB1DA" transform="translate(71,341)"/>
<path d="M0 0 C13.53 0 27.06 0 41 0 C41 0.99 41 1.98 41 3 C40.01080566 2.98952637 39.02161133 2.97905273 38.00244141 2.96826172 C34.33857836 2.93210981 30.67473114 2.90911718 27.01074219 2.89013672 C25.42380117 2.88006812 23.83687875 2.86641233 22.25 2.84912109 C19.97130753 2.82490999 17.69285994 2.81352578 15.4140625 2.8046875 C14.70255035 2.79436493 13.99103821 2.78404236 13.25796509 2.77340698 C11.50368335 2.77300578 9.75003291 2.87797791 8 3 C7.34 3.66 6.68 4.32 6 5 C6.57944932 6.99863756 6.57944932 6.99863756 8 9 C11.04199472 10.29231642 11.04199472 10.29231642 14 11 C13.34 12.98 12.68 14.96 12 17 C8.8667076 14.02196083 6.29239128 10.86843394 3.75 7.375 C2.69039062 5.93253906 2.69039062 5.93253906 1.609375 4.4609375 C0 2 0 2 0 0 Z " fill="#3BA5D3" transform="translate(43,23)"/>
<path d="M0 0 C2.56428515 -0.13559675 5.12135216 -0.23433188 7.6875 -0.3125 C8.40873047 -0.35439453 9.12996094 -0.39628906 9.87304688 -0.43945312 C14.01418243 -0.5339996 15.56449748 -0.32861678 18.9921875 2.2578125 C21.9472455 6.29370884 21.55965115 8.12304 21 13 C20.34 13.66 19.68 14.32 19 15 C19.020625 13.7625 19.04125 12.525 19.0625 11.25 C19.06766681 8.3359175 18.93015558 5.79046673 18 3 C16.78033853 3.99597458 16.78033853 3.99597458 16.90234375 5.9609375 C16.91394531 6.75757813 16.92554687 7.55421875 16.9375 8.375 C16.94652344 9.16648437 16.95554687 9.95796875 16.96484375 10.7734375 C16.97644531 11.50820313 16.98804687 12.24296875 17 13 C17 13.99 17 14.98 17 16 C13.7 16 10.4 16 7 16 C7.33 15.34 7.66 14.68 8 14 C10.3140622 13.26924352 12.64828869 12.59861742 15 12 C15.04254356 10.00045254 15.04080783 7.99958364 15 6 C13.41727399 4.41727399 11.61965997 4.65264253 9.4375 4.4375 C8.61121094 4.35371094 7.78492187 4.26992188 6.93359375 4.18359375 C6.29550781 4.12300781 5.65742187 4.06242187 5 4 C5 5.65 5 7.3 5 9 C4.34 8.67 3.68 8.34 3 8 C3.875 3.25 3.875 3.25 5 1 C4.01 1.33 3.02 1.66 2 2 C1.67 4.31 1.34 6.62 1 9 C0.67 9 0.34 9 0 9 C0 6.03 0 3.06 0 0 Z " fill="#93B5DB" transform="translate(74,371)"/>
<path d="M0 0 C6.6 0 13.2 0 20 0 C20 19.14 20 38.28 20 58 C16.7 59.32 13.4 60.64 10 62 C9.34 61.67 8.68 61.34 8 61 C11.40080085 58.12239928 13.40855469 57.53048177 18 56 C18 38.18 18 20.36 18 2 C12.39 2 6.78 2 1 2 C0.67 1.34 0.34 0.68 0 0 Z " fill="#33BBD3" transform="translate(164,125)"/>
<path d="M0 0 C2.5575 -0.061875 5.115 -0.12375 7.75 -0.1875 C8.94834473 -0.22846802 8.94834473 -0.22846802 10.17089844 -0.27026367 C13.49093022 -0.30915069 15.64143518 -0.21547296 18.515625 1.51171875 C19.00546875 2.00285156 19.4953125 2.49398438 20 3 C19.67 3.66 19.34 4.32 19 5 C17.68 4.34 16.36 3.68 15 3 C14.67 3.66 14.34 4.32 14 5 C11.03 4.67 8.06 4.34 5 4 C5 4.99 5 5.98 5 7 C4.01 7 3.02 7 2 7 C2.01160156 7.83402344 2.02320313 8.66804688 2.03515625 9.52734375 C2.08799793 16.11745662 1.88555068 22.46906374 1 29 C2.32 29.33 3.64 29.66 5 30 C3.35 30 1.7 30 0 30 C0 20.1 0 10.2 0 0 Z " fill="#94B4DC" transform="translate(15,371)"/>
<path d="M0 0 C0.97710937 0.10957031 1.95421875 0.21914062 2.9609375 0.33203125 C4.43433594 0.47705078 4.43433594 0.47705078 5.9375 0.625 C7.12472656 0.88216797 7.12472656 0.88216797 8.3359375 1.14453125 C8.6659375 1.80453125 8.9959375 2.46453125 9.3359375 3.14453125 C12.70451467 4.70454059 12.70451467 4.70454059 16.3359375 5.14453125 C16.3359375 5.80453125 16.3359375 6.46453125 16.3359375 7.14453125 C14.0259375 6.81453125 11.7159375 6.48453125 9.3359375 6.14453125 C9.0059375 6.80453125 8.6759375 7.46453125 8.3359375 8.14453125 C0.0859375 6.82453125 -8.1640625 5.50453125 -16.6640625 4.14453125 C-16.6640625 3.48453125 -16.6640625 2.82453125 -16.6640625 2.14453125 C-14.6840625 2.14453125 -12.7040625 2.14453125 -10.6640625 2.14453125 C-10.6640625 2.80453125 -10.6640625 3.46453125 -10.6640625 4.14453125 C-7.05568826 3.76514603 -7.05568826 3.76514603 -4.34765625 1.58984375 C-2.6640625 0.14453125 -2.6640625 0.14453125 0 0 Z " fill="#0AE0CD" transform="translate(31.6640625,192.85546875)"/>
<path d="M0 0 C0.33 0 0.66 0 1 0 C1.33 25.08 1.66 50.16 2 76 C4.64 76 7.28 76 10 76 C9.67 76.99 9.34 77.98 9 79 C3.375 80.125 3.375 80.125 0 79 C0 52.93 0 26.86 0 0 Z " fill="#37B2D5" transform="translate(218,92)"/>
<path d="M0 0 C0.66 0 1.32 0 2 0 C3.5078125 1.828125 3.5078125 1.828125 5.125 4.25 C5.66382813 5.03890625 6.20265625 5.8278125 6.7578125 6.640625 C8 9 8 9 8 13 C7.34 13 6.68 13 6 13 C6 13.66 6 14.32 6 15 C2.75267068 13.37633534 2.29844864 10.24612161 1 7 C0.401875 7.474375 -0.19625 7.94875 -0.8125 8.4375 C-3 10 -3 10 -6 11 C-6 11.66 -6 12.32 -6 13 C-6.99 13 -7.98 13 -9 13 C-7.51516897 9.76306836 -5.67292565 7.0674375 -3.5 4.25 C-2.8915625 3.45078125 -2.283125 2.6515625 -1.65625 1.828125 C-1.1096875 1.22484375 -0.563125 0.6215625 0 0 Z " fill="#1ACEC9" transform="translate(126,7)"/>
<path d="M0 0 C0.66 0 1.32 0 2 0 C2.00586624 0.97052811 2.01173248 1.94105621 2.01777649 2.94099426 C2.07494296 12.07894885 2.14767245 21.21666407 2.23571491 30.35437489 C2.2804784 35.05239466 2.31972118 39.7503265 2.34643555 44.44848633 C2.3724091 48.98089665 2.41276885 53.5129697 2.46318626 58.04517174 C2.47989537 59.7759145 2.49138441 61.50671564 2.49761391 63.23752785 C2.50721132 65.65846903 2.53521671 68.07853949 2.56762695 70.49926758 C2.56619186 71.21783936 2.56475677 71.93641113 2.5632782 72.67675781 C2.6339951 76.61550267 2.6339951 76.61550267 4.52702332 79.96879578 C5.01310562 80.30909317 5.49918793 80.64939056 6 81 C5.67 81.99 5.34 82.98 5 84 C3.03411865 82.98600769 3.03411865 82.98600769 1 81 C0.58879793 78.27770255 0.43573508 75.94989342 0.45410156 73.22387695 C0.44376389 72.43339966 0.43342621 71.64292236 0.42277527 70.82849121 C0.39327007 68.21488185 0.39184651 65.6020443 0.390625 62.98828125 C0.37564851 61.17651383 0.35892249 59.3647601 0.34051514 57.55302429 C0.29676954 52.78383774 0.27682663 48.01483535 0.26177979 43.2454834 C0.24223461 38.37903927 0.20026176 33.51279481 0.16015625 28.64648438 C0.08477613 19.09771773 0.03453197 9.5489956 0 0 Z " fill="#2CC7CD" transform="translate(67,204)"/>
<path d="M0 0 C0.33 0.66 0.66 1.32 1 2 C1.99 2 2.98 2 4 2 C4 4.97 4 7.94 4 11 C5.32 11.66 6.64 12.32 8 13 C6.68 13.33 5.36 13.66 4 14 C4 17.3 4 20.6 4 24 C2.68 24 1.36 24 0 24 C0 16.08 0 8.16 0 0 Z " fill="#99BCE3" transform="translate(16,376)"/>
<path d="M0 0 C-0.125 1.75 -0.125 1.75 -1 4 C-4.0625 6.25 -4.0625 6.25 -7 8 C-6.67 8.99 -6.34 9.98 -6 11 C-7.32 11.33 -8.64 11.66 -10 12 C-10.33 15.96 -10.66 19.92 -11 24 C-10.113125 23.67 -9.22625 23.34 -8.3125 23 C-5.29076653 22.08777857 -3.11626294 21.81669042 0 22 C-2.34914492 24.34914492 -3.95679446 24.73140357 -7.125 25.625 C-8.49011719 26.01558594 -8.49011719 26.01558594 -9.8828125 26.4140625 C-10.58148438 26.60742188 -11.28015625 26.80078125 -12 27 C-13.63883295 8.0752613 -13.63883295 8.0752613 -9.84375 3.26953125 C-6.6171459 1.39198145 -3.77732744 0 0 0 Z " fill="#30A8D1" transform="translate(150,276)"/>
<path d="M0 0 C8.2372335 0.45071655 16.38656978 1.36066035 24.5625 2.4375 C26.00810303 2.62082886 26.00810303 2.62082886 27.48291016 2.80786133 C28.39733887 2.93185303 29.31176758 3.05584473 30.25390625 3.18359375 C31.07189697 3.29243896 31.8898877 3.40128418 32.73266602 3.51342773 C35.08631368 4.01852301 36.90442344 4.83252027 39 6 C38.67 8.31 38.34 10.62 38 13 C35.525 12.505 35.525 12.505 33 12 C33 10.35 33 8.7 33 7 C29.70979189 6.34658992 26.41760467 5.70371479 23.125 5.0625 C22.2071875 4.88009766 21.289375 4.69769531 20.34375 4.50976562 C14.88888278 3.45336528 9.53941938 2.69321575 3.99169922 2.34155273 C2 2 2 2 0 0 Z " fill="#419ECC" transform="translate(199,203)"/>
<path d="M0 0 C3.14478861 1.43396681 5.63554335 3.19729814 8.3125 5.375 C12.05655871 8.34421212 15.78564904 10.75832396 20 13 C20 13.33 20 13.66 20 14 C15.545 14.495 15.545 14.495 11 15 C10.67 13.35 10.34 11.7 10 10 C6.05272412 9.82057837 3.4019487 9.90649311 0 12 C0 9.69 0 7.38 0 5 C1.32 5.33 2.64 5.66 4 6 C2.68 4.02 1.36 2.04 0 0 Z " fill="#20BCD2" transform="translate(62,313)"/>
<path d="M0 0 C4.62 0 9.24 0 14 0 C14.09796875 1.65644531 14.1959375 3.31289062 14.296875 5.01953125 C15.18103553 18.66990798 16.70362899 31.71850515 20 45 C19.34 44.67 18.68 44.34 18 44 C17.375 41.4375 17.375 41.4375 17 39 C15.515 38.505 15.515 38.505 14 38 C14.01160156 37.24074219 14.02320313 36.48148437 14.03515625 35.69921875 C14.04417969 34.70535156 14.05320312 33.71148437 14.0625 32.6875 C14.07410156 31.70136719 14.08570313 30.71523438 14.09765625 29.69921875 C14.12329862 26.90036151 14.12329862 26.90036151 13 24 C12.91790208 22.22686149 12.89253706 20.45079225 12.90234375 18.67578125 C12.90556641 17.64775391 12.90878906 16.61972656 12.91210938 15.56054688 C12.92048828 14.48869141 12.92886719 13.41683594 12.9375 12.3125 C12.94426758 10.68731445 12.94426758 10.68731445 12.95117188 9.02929688 C12.96296243 6.35284106 12.98089792 3.67641361 13 1 C8.71 1 4.42 1 0 1 C0 0.67 0 0.34 0 0 Z " fill="#31C7C3" transform="translate(20,233)"/>
<path d="M0 0 C0.66 0 1.32 0 2 0 C2 0.66 2 1.32 2 2 C7.28 2 12.56 2 18 2 C8.72541426 6.63729287 -0.94282998 6.25631767 -11.125 6.125 C-12.47655581 6.11494282 -13.82811893 6.10582184 -15.1796875 6.09765625 C-18.45331558 6.07427319 -21.72655994 6.04150061 -25 6 C-25 5.67 -25 5.34 -25 5 C-17.08 4.67 -9.16 4.34 -1 4 C-0.67 2.68 -0.34 1.36 0 0 Z " fill="#4BA0D0" transform="translate(137,352)"/>
<path d="M0 0 C7.84685366 1.87882412 15.96911612 2.45891208 24 3 C24 3.66 24 4.32 24 5 C9.85498974 4.52613031 -4.03799444 2.18931306 -18 0 C-18 -0.33 -18 -0.66 -18 -1 C-15.56304285 -1.22181406 -13.126474 -1.42791119 -10.6875 -1.625 C-9.99720703 -1.68945312 -9.30691406 -1.75390625 -8.59570312 -1.8203125 C-4.7440028 -2.11802847 -3.31145584 -2.20763723 0 0 Z " fill="#42B3D2" transform="translate(136,212)"/>
<path d="M0 0 C0.8971875 0.7425 0.8971875 0.7425 1.8125 1.5 C1.1525 2.82 0.4925 4.14 -0.1875 5.5 C-0.868125 5.17 -1.54875 4.84 -2.25 4.5 C-6.75047767 2.9679225 -10.68937505 3.00062502 -15.1875 4.5 C-14.1875 1.5 -14.1875 1.5 -13.1875 0.5 C-14.5075 0.17 -15.8275 -0.16 -17.1875 -0.5 C-11.6085036 -2.35966547 -5.34193645 -2.51385245 0 0 Z " fill="#92B5D9" transform="translate(63.1875,372.5)"/>
<path d="M0 0 C5.61 0 11.22 0 17 0 C17 1.32 17 2.64 17 4 C15.35 4 13.7 4 12 4 C12.99 3.34 13.98 2.68 15 2 C10.71 1.67 6.42 1.34 2 1 C2 9.58 2 18.16 2 27 C2.495 22.545 2.495 22.545 3 18 C3.33 18 3.66 18 4 18 C4 21.96 4 25.92 4 30 C2.68 30 1.36 30 0 30 C0 20.1 0 10.2 0 0 Z " fill="#93AECD" transform="translate(125,371)"/>
<path d="M0 0 C0.66 0 1.32 0 2 0 C2.02505615 0.58491211 2.0501123 1.16982422 2.07592773 1.77246094 C2.19222962 4.43184471 2.31480067 7.09090403 2.4375 9.75 C2.47681641 10.67039062 2.51613281 11.59078125 2.55664062 12.5390625 C2.59853516 13.42851562 2.64042969 14.31796875 2.68359375 15.234375 C2.72025146 16.05131836 2.75690918 16.86826172 2.79467773 17.70996094 C2.9962732 19.95843352 3.22438711 21.8776282 4 24 C4.99 24.66 5.98 25.32 7 26 C4 28 4 28 0 28 C0 18.76 0 9.52 0 0 Z " fill="#9DC2EC" transform="translate(181,372)"/>
<path d="M0 0 C5.95270135 0.13174993 10.99459461 0.53129674 15.71484375 4.42578125 C18.10469694 7.35316981 18.36395 10.39881049 18 14 C17.2243654 17.10253839 16.21182009 20.0423374 15 23 C14.34 22.34 13.68 21.68 13 21 C13.33 20.34 13.66 19.68 14 19 C14.44080589 14.6851885 14.47056025 11.05315866 12.6875 7.0625 C10.73043373 4.67053012 9.03842294 3.21046431 5.95703125 2.5859375 C4.89548828 2.48152344 4.89548828 2.48152344 3.8125 2.375 C2.554375 2.25125 1.29625 2.1275 0 2 C0 1.34 0 0.68 0 0 Z " fill="#96BFED" transform="translate(220,372)"/>
<path d="M0 0 C0.33 0 0.66 0 1 0 C1.41676948 1.76602319 1.8077738 3.53814301 2.1875 5.3125 C2.40792969 6.29863281 2.62835938 7.28476562 2.85546875 8.30078125 C3 11 3 11 1.58984375 12.63671875 C1.06519531 13.08660156 0.54054687 13.53648437 0 14 C-0.41434251 16.32031805 -0.74889902 18.65639085 -1 21 C-1.33 21.99 -1.66 22.98 -2 24 C-2.99 24 -3.98 24 -5 24 C-5 24.66 -5 25.32 -5 26 C-5.66 26 -6.32 26 -7 26 C-6.74476563 25.195625 -6.74476563 25.195625 -6.484375 24.375 C-3.99680919 16.3301063 -1.99851481 8.17666464 0 0 Z " fill="#3994D8" transform="translate(216,260)"/>
<path d="M0 0 C0.66 0.33 1.32 0.66 2 1 C1.96744792 3.05078125 1.93489583 5.1015625 1.90234375 7.15234375 C1.79438816 9.01732141 1.79438816 9.01732141 3 10 C3.07226502 11.85287502 3.0838122 13.70833878 3.0625 15.5625 C3.05347656 16.57441406 3.04445312 17.58632813 3.03515625 18.62890625 C3.02355469 19.41136719 3.01195312 20.19382812 3 21 C1.35 21 -0.3 21 -2 21 C-1.85879286 19.06215735 -1.71187127 17.12473045 -1.5625 15.1875 C-1.48128906 14.10855469 -1.40007812 13.02960938 -1.31640625 11.91796875 C-1 9 -1 9 0 6 C0.03920815 4.00038436 0.04443347 1.99950636 0 0 Z " fill="#97C0EC" transform="translate(200,380)"/>
<path d="M0 0 C0.99 0.66 1.98 1.32 3 2 C2.7525 3.051875 2.505 4.10375 2.25 5.1875 C1.6110158 9.05366249 1.6110158 9.05366249 3.9375 11.9375 C4.618125 12.618125 5.29875 13.29875 6 14 C5.67 14.66 5.34 15.32 5 16 C-4.59453303 6.77448747 -4.59453303 6.77448747 -8 1 C-6.865625 1.020625 -5.73125 1.04125 -4.5625 1.0625 C-1.18424326 1.41577477 -1.18424326 1.41577477 0 0 Z " fill="#28BECB" transform="translate(45,313)"/>
<path d="M0 0 C1.75 0.125 1.75 0.125 4 1 C6.125 3.875 6.125 3.875 8 7 C8.99 8.485 8.99 8.485 10 10 C7 10 7 10 4 9 C3.67 9.66 3.34 10.32 3 11 C2.01 11 1.02 11 0 11 C0.020625 10.2575 0.04125 9.515 0.0625 8.75 C0.10561995 6.06766043 0.10561995 6.06766043 -0.5625 3.8125 C-1 2 -1 2 0 0 Z " fill="#18C5D9" transform="translate(57,309)"/>
<path d="M0 0 C1.125 1.6875 1.125 1.6875 2 4 C1.125 6.75 1.125 6.75 0 9 C-2.31 9 -4.62 9 -7 9 C-7 8.34 -7 7.68 -7 7 C-7.66 7 -8.32 7 -9 7 C-9 6.34 -9 5.68 -9 5 C-3.64285714 0 -3.64285714 0 0 0 Z " fill="#20ACE1" transform="translate(159,271)"/>
<path d="M0 0 C1.88428557 0.67295913 3.76486986 1.36134344 5.609375 2.13671875 C9.15417595 3.41678576 12.76735911 3.91510387 16.484375 4.47265625 C18.95348076 4.9902483 20.81160583 5.76775001 23 7 C14.99305886 6.4017071 6.99394289 5.7529365 -1 5 C-1.33 5.66 -1.66 6.32 -2 7 C-2.66 7 -3.32 7 -4 7 C-3.6875 4.625 -3.6875 4.625 -3 2 C-2.01 1.34 -1.02 0.68 0 0 Z " fill="#36A9D7" transform="translate(185,217)"/>
<path d="M0 0 C2 2 2 2 2.20254517 4.21463013 C2.18033905 5.13396332 2.15813293 6.05329651 2.13525391 7.00048828 C2.10499619 8.56188034 2.10499619 8.56188034 2.0741272 10.15481567 C2.04193085 11.28192963 2.0097345 12.40904358 1.9765625 13.5703125 C1.95153656 14.72167694 1.92651062 15.87304138 1.90072632 17.05929565 C1.81834732 20.74815537 1.72182628 24.43649391 1.625 28.125 C1.5667788 30.62107224 1.50947515 33.11716607 1.453125 35.61328125 C1.31274188 41.74247796 1.1607367 47.87130514 1 54 C0.67 54 0.34 54 0 54 C-0.16780996 46.47043741 -0.32777637 38.94073809 -0.48217773 31.41088867 C-0.53568935 28.84704781 -0.59102543 26.28324437 -0.64819336 23.71948242 C-0.72984943 20.04353917 -0.80503532 16.36751313 -0.87890625 12.69140625 C-0.91945885 10.96018272 -0.91945885 10.96018272 -0.96083069 9.19398499 C-0.98092697 8.13296066 -1.00102325 7.07193634 -1.02172852 5.97875977 C-1.04171402 5.03944107 -1.06169952 4.10012238 -1.08229065 3.13233948 C-1 1 -1 1 0 0 Z " fill="#15E4C6" transform="translate(33,90)"/>
<path d="M0 0 C0.99 0 1.98 0 3 0 C2.835 0.99 2.67 1.98 2.5 3 C1.91525483 7.02732942 1.92867976 10.93474623 2 15 C2.66 15.33 3.32 15.66 4 16 C3.34 17.32 2.68 18.64 2 20 C0.515625 19.0078125 0.515625 19.0078125 -1 17 C-1.24400699 14.20553898 -1.32828487 11.65900564 -1.25 8.875 C-1.24484375 8.13378906 -1.2396875 7.39257812 -1.234375 6.62890625 C-1.15430775 1.15430775 -1.15430775 1.15430775 0 0 Z " fill="#98C1EC" transform="translate(76,372)"/>
<path d="M0 0 C1.98 0 3.96 0 6 0 C3.53721199 2.46278801 1.29323018 2.99771255 -2 4 C-0.02 4.99 1.96 5.98 4 7 C2.3125 8.125 2.3125 8.125 0 9 C-2.625 8.125 -2.625 8.125 -5 7 C-5.66 7 -6.32 7 -7 7 C-7 6.01 -7 5.02 -7 4 C-7.99 3.67 -8.98 3.34 -10 3 C-10 2.34 -10 1.68 -10 1 C-6.7 1.33 -3.4 1.66 0 2 C0 1.34 0 0.68 0 0 Z " fill="#2CBAD5" transform="translate(155,191)"/>
<path d="M0 0 C0.556875 0.185625 1.11375 0.37125 1.6875 0.5625 C4.399133 1.07551165 6.34371039 0.6640724 9 0 C9 3.3 9 6.6 9 10 C8.01 10 7.02 10 6 10 C5.67 8.35 5.34 6.7 5 5 C3.68 4.67 2.36 4.34 1 4 C0.67 2.68 0.34 1.36 0 0 Z " fill="#21B3DC" transform="translate(159,214)"/>
<path d="M0 0 C0.33 0 0.66 0 1 0 C1.125 7.625 1.125 7.625 0 11 C0.99 11 1.98 11 3 11 C2.67 12.32 2.34 13.64 2 15 C1.34 15 0.68 15 0 15 C-0.33 15.99 -0.66 16.98 -1 18 C-1.33 18 -1.66 18 -2 18 C-2.054138 15.75026553 -2.09285491 13.50015617 -2.125 11.25 C-2.14820313 9.99703125 -2.17140625 8.7440625 -2.1953125 7.453125 C-2.01537302 4.27179508 -1.68998582 2.63478104 0 0 Z " fill="#1CB9DA" transform="translate(221,88)"/>
<path d="M0 0 C0.33 0 0.66 0 1 0 C1.02688151 1.64574566 1.04634123 3.29161413 1.0625 4.9375 C1.07410156 5.85402344 1.08570313 6.77054688 1.09765625 7.71484375 C1 10 1 10 0 11 C-1.65 11 -3.3 11 -5 11 C-4.67 7.7 -4.34 4.4 -4 1 C-3.01 1 -2.02 1 -1 1 C-0.67 0.67 -0.34 0.34 0 0 Z " fill="#25A7E0" transform="translate(236,160)"/>
<path d="M0 0 C0.99 0.66 1.98 1.32 3 2 C3.99 1.34 4.98 0.68 6 0 C6.99 1.65 7.98 3.3 9 5 C7.4375 6.625 7.4375 6.625 5 8 C1.25 7.1875 1.25 7.1875 -2 6 C-1.34 4.02 -0.68 2.04 0 0 Z " fill="#21B7D7" transform="translate(151,40)"/>
<path d="M0 0 C0.66 0 1.32 0 2 0 C3.15006091 3.37299744 2.85199953 5.34853215 1.6875 8.6875 C1.42324219 9.47511719 1.15898437 10.26273437 0.88671875 11.07421875 C0 13 0 13 -2 14 C-3.32854177 8.0819503 -2.66464729 5.22270869 0 0 Z " fill="#99BEE6" transform="translate(148,377)"/>
<path d="M0 0 C2 2 2 2 2.1953125 4.8203125 C2.16050781 6.45613281 2.16050781 6.45613281 2.125 8.125 C2.10695313 9.22070312 2.08890625 10.31640625 2.0703125 11.4453125 C2.04710938 12.28835938 2.02390625 13.13140625 2 14 C0.35 14.66 -1.3 15.32 -3 16 C-2.69075786 13.89535207 -2.3774944 11.7912947 -2.0625 9.6875 C-1.88847656 8.51574219 -1.71445313 7.34398437 -1.53515625 6.13671875 C-1 3 -1 3 0 0 Z " fill="#98BDEB" transform="translate(67,380)"/>
<path d="M0 0 C-0.66 1.32 -1.32 2.64 -2 4 C-2 3.34 -2 2.68 -2 2 C-2.99 2.66 -3.98 3.32 -5 4 C-6.32 4 -7.64 4 -9 4 C-9 3.34 -9 2.68 -9 2 C-9.99 2 -10.98 2 -12 2 C-12.33 2.66 -12.66 3.32 -13 4 C-13.33 2.68 -13.66 1.36 -14 0 C-9.72000646 -2.13999677 -4.50951645 -1.09321611 0 0 Z " fill="#23ABDF" transform="translate(120,339)"/>
<path d="M0 0 C-0.33 1.65 -0.66 3.3 -1 5 C-2.32 4.67 -3.64 4.34 -5 4 C-6.98 6.31 -8.96 8.62 -11 11 C-11.66 10.67 -12.32 10.34 -13 10 C-11.05943804 5.40393219 -9.53769758 3.15540635 -5 1 C-2 0 -2 0 0 0 Z " fill="#2AA0E9" transform="translate(200,307)"/>
<path d="M0 0 C1.67542976 0.28604898 3.34385343 0.61781233 5 1 C4.67 3.31 4.34 5.62 4 8 C3.01 8.33 2.02 8.66 1 9 C-0.5625 7.8125 -0.5625 7.8125 -2 6 C-1.57894737 1.57894737 -1.57894737 1.57894737 0 0 Z " fill="#27A9DF" transform="translate(178,256)"/>
<path d="M0 0 C3.88192126 3.76774711 7.79531881 7.62797789 11 12 C11 12.66 11 13.32 11 14 C8.3125 14.1875 8.3125 14.1875 5 13 C2.64441746 9.18967785 0 4.56822966 0 0 Z " fill="#2EA7D4" transform="translate(85,26)"/>
<path d="M0 0 C2.625 -0.1875 2.625 -0.1875 5 0 C4.29445932 3.66881155 2.72264494 6.70450534 1 10 C0.34 10 -0.32 10 -1 10 C-2.25 3.375 -2.25 3.375 0 0 Z " fill="#2C94EC" transform="translate(218,297)"/>
<path d="M0 0 C1.98 0 3.96 0 6 0 C6 0.66 6 1.32 6 2 C7.19496094 1.96519531 7.19496094 1.96519531 8.4140625 1.9296875 C18.93848858 1.75043937 18.93848858 1.75043937 24 4 C24 4.33 24 4.66 24 5 C15.86894139 4.50877547 7.98079085 3.64733759 0 2 C0 1.34 0 0.68 0 0 Z " fill="#30D3BF" transform="translate(15,195)"/>
<path d="M0 0 C1.875 0.5 1.875 0.5 4 2 C5.20354374 4.61439644 5.84658604 7.12490872 6 10 C4.625 12.5 4.625 12.5 3 14 C1.56976822 9.32790951 0.59619955 4.86896303 0 0 Z " fill="#94BCE6" transform="translate(169,376)"/>
<path d="M0 0 C2.00256574 1.14134327 4.00199797 2.28818633 6 3.4375 C7.11375 4.07558594 8.2275 4.71367187 9.375 5.37109375 C10.24125 5.90863281 11.1075 6.44617188 12 7 C12 7.33 12 7.66 12 8 C7.545 8.495 7.545 8.495 3 9 C2.87625 8.195625 2.7525 7.39125 2.625 6.5625 C2.315625 5.2940625 2.315625 5.2940625 2 4 C1.34 3.67 0.68 3.34 0 3 C0 2.01 0 1.02 0 0 Z " fill="#2EB5D0" transform="translate(70,319)"/>
<path d="M0 0 C2.31 0.66 4.62 1.32 7 2 C7 3.32 7 4.64 7 6 C7.66 6.33 8.32 6.66 9 7 C4.62065881 6.48041715 0.31196609 5.94324258 -4 5 C-3.525625 4.54625 -3.05125 4.0925 -2.5625 3.625 C-0.90972192 2.06741796 -0.90972192 2.06741796 0 0 Z " fill="#1BB9DA" transform="translate(144,208)"/>
<path d="M0 0 C0.66 0.33 1.32 0.66 2 1 C1.67 1.99 1.34 2.98 1 4 C0.34 3.9175 -0.32 3.835 -1 3.75 C-4.03364958 4.00280413 -5.32523522 4.57603993 -7.9375 6 C-11.44137299 7.88823516 -13.96400222 8.40359978 -18 8 C-14.64126573 5.76084382 -11.1610566 4.30967271 -7.4375 2.8125 C-6.75236328 2.52697266 -6.06722656 2.24144531 -5.36132812 1.94726562 C-3.5980187 1.23605839 -1.80039929 0.61125955 0 0 Z " fill="#2CBCCF" transform="translate(151,175)"/>
<path d="M0 0 C0.33 0 0.66 0 1 0 C1.33 2.64 1.66 5.28 2 8 C4.64 8 7.28 8 10 8 C9.67 8.99 9.34 9.98 9 11 C3.375 12.125 3.375 12.125 0 11 C0 7.37 0 3.74 0 0 Z " fill="#38A7D3" transform="translate(218,160)"/>
<path d="M0 0 C7 9.33333333 7 9.33333333 7 13 C4 12 4 12 2 10 C1.01 10 0.02 10 -1 10 C-0.67 6.7 -0.34 3.4 0 0 Z " fill="#1ACAD3" transform="translate(41,282)"/>
<path d="M0 0 C1.32 0.33 2.64 0.66 4 1 C4 2.32 4 3.64 4 5 C5.32 4.67 6.64 4.34 8 4 C8.20086443 7.71599191 8.1519437 8.77208445 6 12 C0 3 0 3 0 0 Z " fill="#18C4D9" transform="translate(46,319)"/>
<path d="M0 0 C5.75 -0.125 5.75 -0.125 8 1 C10.8754532 1.39315079 13.74111846 1.74649025 16.625 2.0625 C17.42679688 2.15337891 18.22859375 2.24425781 19.0546875 2.33789062 C21.03607868 2.56197653 23.01799305 2.7814275 25 3 C25 3.33 25 3.66 25 4 C23.58366664 4.16947579 22.16691467 4.33545507 20.75 4.5 C19.56664062 4.63921875 19.56664062 4.63921875 18.359375 4.78125 C13.58857556 5.22357578 10.22589418 4.55683276 5.75 3 C4.67234375 2.62875 3.5946875 2.2575 2.484375 1.875 C1.25460938 1.441875 1.25460938 1.441875 0 1 C0 0.67 0 0.34 0 0 Z " fill="#27AAE0" transform="translate(193,203)"/>
<path d="M0 0 C0.33 0 0.66 0 1 0 C1.103125 1.258125 1.20625 2.51625 1.3125 3.8125 C1.72721641 7.33449461 2.36281821 8.60256201 5 11 C4.6875 13.1875 4.6875 13.1875 4 15 C1.23435847 12.85662781 -0.79753398 11.26864349 -1.3671875 7.69921875 C-1.37444566 5.42378587 -1.32574839 3.25231741 -1 1 C-0.67 0.67 -0.34 0.34 0 0 Z " fill="#97BFEB" transform="translate(210,382)"/>
<path d="M0 0 C3.96 0 7.92 0 12 0 C12.33 0.66 12.66 1.32 13 2 C9.0186217 3.3271261 5.14954773 3.06915913 1 3 C0.67 3.99 0.34 4.98 0 6 C0 4.02 0 2.04 0 0 Z " fill="#8CB0DF" transform="translate(128,372)"/>
<path d="M0 0 C0.33 0.66 0.66 1.32 1 2 C1.66 2 2.32 2 3 2 C3.33 1.34 3.66 0.68 4 0 C4.33 0.99 4.66 1.98 5 3 C5.99 2.67 6.98 2.34 8 2 C8 2.66 8 3.32 8 4 C5.24075815 5.80411967 4.11027897 6.0127245 0.75 5.625 C-0.1575 5.41875 -1.065 5.2125 -2 5 C-2 4.34 -2 3.68 -2 3 C-2.66 2.67 -3.32 2.34 -4 2 C-2.68 1.34 -1.36 0.68 0 0 Z " fill="#29ADDD" transform="translate(107,352)"/>
<path d="M0 0 C0.99 0.33 1.98 0.66 3 1 C3.33 1.99 3.66 2.98 4 4 C3.34 4 2.68 4 2 4 C2 4.99 2 5.98 2 7 C1.34 7 0.68 7 0 7 C-0.33 7.99 -0.66 8.98 -1 10 C-1.99 9.67 -2.98 9.34 -4 9 C-3.34 9 -2.68 9 -2 9 C-2.226875 8.443125 -2.45375 7.88625 -2.6875 7.3125 C-3.12449065 4.07876916 -1.81198627 2.60926022 0 0 Z " fill="#22A8E3" transform="translate(163,280)"/>
<path d="M0 0 C0.33 0.66 0.66 1.32 1 2 C-0.29296875 4.4609375 -0.29296875 4.4609375 -2.1875 7.375 C-2.79980469 8.33148438 -3.41210938 9.28796875 -4.04296875 10.2734375 C-5.85482755 12.79774377 -7.7360735 14.88164749 -10 17 C-10 15.68 -10 14.36 -10 13 C-9.34 13 -8.68 13 -8 13 C-7.67 11.35 -7.34 9.7 -7 8 C-6.01 8 -5.02 8 -4 8 C-3.896875 7.4225 -3.79375 6.845 -3.6875 6.25 C-2.90207202 3.67950842 -1.69495803 2.06342716 0 0 Z " fill="#468ED2" transform="translate(223,299)"/>
<path d="M0 0 C2.78212622 4.17318933 4.15481562 8.06975779 5 13 C3.02 12.34 1.04 11.68 -1 11 C-0.34 10.67 0.32 10.34 1 10 C0.4740625 8.9171875 0.4740625 8.9171875 -0.0625 7.8125 C-1.10409017 4.6877295 -0.89096572 3.11838004 0 0 Z " fill="#9BC1EE" transform="translate(41,383)"/>
<path d="M0 0 C0 0.33 0 0.66 0 1 C-1.98 1.66 -3.96 2.32 -6 3 C-6 6.96 -6 10.92 -6 15 C-8.68092691 12.31907309 -8.38670257 10.60832637 -8.625 6.875 C-8.69976562 5.77929688 -8.77453125 4.68359375 -8.8515625 3.5546875 C-8.90054688 2.71164062 -8.94953125 1.86859375 -9 1 C-6.04335481 -0.4783226 -3.25770263 -0.06032783 0 0 Z " fill="#8EB1DE" transform="translate(119,372)"/>
<path d="M0 0 C1.4540625 0.0309375 1.4540625 0.0309375 2.9375 0.0625 C2.9375 2.7025 2.9375 5.3425 2.9375 8.0625 C0.4625 7.0725 0.4625 7.0725 -2.0625 6.0625 C-2.0625 4.7425 -2.0625 3.4225 -2.0625 2.0625 C-2.7225 1.7325 -3.3825 1.4025 -4.0625 1.0625 C-3.0625 0.0625 -3.0625 0.0625 0 0 Z " fill="#26A1E4" transform="translate(221.0625,223.9375)"/>
<path d="M0 0 C0.66 0.33 1.32 0.66 2 1 C1.814375 1.61875 1.62875 2.2375 1.4375 2.875 C0.76313824 5.04160178 0.76313824 5.04160178 2 7 C0.02 7 -1.96 7 -4 7 C-4.33 8.32 -4.66 9.64 -5 11 C-5.33 11 -5.66 11 -6 11 C-6 9.02 -6 7.04 -6 5 C-5.01 5 -4.02 5 -3 5 C-3 4.34 -3 3.68 -3 3 C-2.01 3 -1.02 3 0 3 C0 2.01 0 1.02 0 0 Z " fill="#2C97E7" transform="translate(214,281)"/>
<path d="M0 0 C1.4540625 0.0309375 1.4540625 0.0309375 2.9375 0.0625 C2.9375 1.0525 2.9375 2.0425 2.9375 3.0625 C1.9475 3.3925 0.9575 3.7225 -0.0625 4.0625 C-0.79573796 6.07758358 -0.79573796 6.07758358 -1.0625 8.0625 C-1.7225 8.0625 -2.3825 8.0625 -3.0625 8.0625 C-3.44313221 5.7364143 -3.77519945 3.40194736 -4.0625 1.0625 C-3.0625 0.0625 -3.0625 0.0625 0 0 Z " fill="#07E2CE" transform="translate(204.0625,24.9375)"/>
<path d="M0 0 C3 1 3 1 4.25 2.5625 C5.3813806 6.23948695 4.62965552 9.2220669 4 13 C2.68 12.67 1.36 12.34 0 12 C0.33 11.67 0.66 11.34 1 11 C1.23192865 9.48530552 1.41215238 7.96245438 1.5625 6.4375 C1.64628906 5.61121094 1.73007813 4.78492188 1.81640625 3.93359375 C1.87699219 3.29550781 1.93757813 2.65742188 2 2 C1.34 2 0.68 2 0 2 C0 1.34 0 0.68 0 0 Z " fill="#93BEEC" transform="translate(89,373)"/>
<path d="M0 0 C1.98 0 3.96 0 6 0 C5.67 2.31 5.34 4.62 5 7 C3.35 6.67 1.7 6.34 0 6 C0 4.02 0 2.04 0 0 Z " fill="#27A3E4" transform="translate(232,209)"/>
<path d="M0 0 C0.66 0 1.32 0 2 0 C2.61875 0.639375 3.2375 1.27875 3.875 1.9375 C6.03520783 4.03417231 7.08776721 4.58396674 10 5 C9.34 6.98 8.68 8.96 8 11 C4.32966073 7.72291137 2.30718811 4.28477792 0 0 Z " fill="#3796D5" transform="translate(47,29)"/>
<path d="M0 0 C0.33 0 0.66 0 1 0 C1 3.3 1 6.6 1 10 C-0.6210103 10.69685498 -2.24696066 11.38222861 -3.875 12.0625 C-4.77992188 12.44535156 -5.68484375 12.82820312 -6.6171875 13.22265625 C-9 14 -9 14 -11 13 C-7.8745041 10.35534962 -4.91211733 9.15585285 -1 8 C-0.67 5.36 -0.34 2.72 0 0 Z " fill="#34B0CD" transform="translate(183,173)"/>
<path d="M0 0 C0.33 1.32 0.66 2.64 1 4 C1.66 4 2.32 4 3 4 C3 6.66666667 3 9.33333333 3 12 C2.34 12.66 1.68 13.32 1 14 C0.01 13.67 -0.98 13.34 -2 13 C-1.67 12.34 -1.34 11.68 -1 11 C-0.7724985 9.12943209 -0.59037189 7.25314042 -0.4375 5.375 C-0.35371094 4.37210938 -0.26992187 3.36921875 -0.18359375 2.3359375 C-0.12300781 1.56507813 -0.06242187 0.79421875 0 0 Z " fill="#19DBD0" transform="translate(68,172)"/>
<path d="M0 0 C0.66 0.33 1.32 0.66 2 1 C1.649375 1.78375 1.29875 2.5675 0.9375 3.375 C0.628125 4.24125 0.31875 5.1075 0 6 C0.33 6.66 0.66 7.32 1 8 C0.360625 8.28875 -0.27875 8.5775 -0.9375 8.875 C-3.15206079 9.82823451 -3.15206079 9.82823451 -4 12 C-4.66 12 -5.32 12 -6 12 C-5.48659616 8.20081162 -4.7920132 6.56865214 -2 4 C-0.82425289 1.90010348 -0.82425289 1.90010348 0 0 Z " fill="#12CAD5" transform="translate(166,28)"/>
<path d="M0 0 C0.66 0 1.32 0 2 0 C2 3.3 2 6.6 2 10 C0.35 10 -1.3 10 -3 10 C-2 7 -2 7 -1 5 C-0.64386903 3.33805547 -0.30791692 1.671549 0 0 Z " fill="#9AB8DB" transform="translate(201,391)"/>
<path d="M0 0 C0.66 0 1.32 0 2 0 C3.08683991 3.26051972 2.98760508 5.22978132 2.6875 8.625 C2.60886719 9.60726563 2.53023437 10.58953125 2.44921875 11.6015625 C2.30097656 12.39304687 2.15273437 13.18453125 2 14 C1.01 14.495 1.01 14.495 0 15 C0 10.05 0 5.1 0 0 Z " fill="#98BFE5" transform="translate(126,384)"/>
<path d="M0 0 C3.375 -0.1875 3.375 -0.1875 7 0 C7.66 0.99 8.32 1.98 9 3 C8.01 4.485 8.01 4.485 7 6 C3.31197956 4.77065985 2.27643027 3.06140622 0 0 Z " fill="#8FB2E7" transform="translate(56,372)"/>
<path d="M0 0 C0.66 0 1.32 0 2 0 C2 0.66 2 1.32 2 2 C3.98 2 5.96 2 8 2 C8 2.66 8 3.32 8 4 C1.95170514 4.89604368 -3.8894576 5.11269443 -10 5 C-10 4.67 -10 4.34 -10 4 C-7.03 4 -4.06 4 -1 4 C-0.67 2.68 -0.34 1.36 0 0 Z " fill="#27A2E1" transform="translate(137,352)"/>
<path d="M0 0 C0 1.65 0 3.3 0 5 C-1.98 5.99 -1.98 5.99 -4 7 C-4.66 6.01 -5.32 5.02 -6 4 C-5.67 3.01 -5.34 2.02 -5 1 C-3 0 -3 0 0 0 Z " fill="#1CB6E0" transform="translate(183,176)"/>
<path d="M0 0 C-0.33 0.66 -0.66 1.32 -1 2 C-12.385 1.505 -12.385 1.505 -24 1 C-24 0.67 -24 0.34 -24 0 C-20.9378174 -0.19533059 -17.87553679 -0.38153284 -14.8125 -0.5625 C-13.51602539 -0.64661133 -13.51602539 -0.64661133 -12.19335938 -0.73242188 C-7.95250921 -0.9761489 -4.14202181 -1.15770796 0 0 Z " fill="#2EACD2" transform="translate(85,24)"/>
<path d="M0 0 C0.33 0 0.66 0 1 0 C1 3.3 1 6.6 1 10 C-0.65 10 -2.3 10 -4 10 C-4 8.02 -4 6.04 -4 4 C-3.67 5.32 -3.34 6.64 -3 8 C-2.34 8 -1.68 8 -1 8 C-1.020625 6.865625 -1.04125 5.73125 -1.0625 4.5625 C-1 1 -1 1 0 0 Z " fill="#9DB8D8" transform="translate(78,391)"/>
<path d="M0 0 C2.475 0.99 2.475 0.99 5 2 C5.33 1.34 5.66 0.68 6 0 C6.99 0 7.98 0 9 0 C9 1.98 9 3.96 9 6 C5.06326356 4.68775452 2.77280706 3.08089673 0 0 Z " fill="#2FB8D1" transform="translate(60,336)"/>
<path d="M0 0 C0.72445312 0.13277344 1.44890625 0.26554687 2.1953125 0.40234375 C7.12491105 1.30281709 12.05322123 2.19781966 17 3 C16.360625 3.12375 15.72125 3.2475 15.0625 3.375 C14.381875 3.58125 13.70125 3.7875 13 4 C12.67 4.66 12.34 5.32 12 6 C12 5.34 12 4.68 12 4 C10.68 4.33 9.36 4.66 8 5 C8 4.34 8 3.68 8 3 C7.236875 3.061875 6.47375 3.12375 5.6875 3.1875 C2.51219194 2.96596688 2.04264341 2.28224968 0 0 Z " fill="#35AAD1" transform="translate(98,334)"/>
<path d="M0 0 C0.66 0.99 1.32 1.98 2 3 C1.67 3.99 1.34 4.98 1 6 C0.01 6 -0.98 6 -2 6 C-2.268125 6.639375 -2.53625 7.27875 -2.8125 7.9375 C-4 10 -4 10 -7 11 C-5.5140084 6.40693504 -3.14985318 3.56430755 0 0 Z " fill="#33A7D1" transform="translate(108,31)"/>
<path d="M0 0 C0.99 0 1.98 0 3 0 C1.34643078 3.58273331 -0.67980703 6.80973467 -3 10 C-3.66 10 -4.32 10 -5 10 C-4.67 8.35 -4.34 6.7 -4 5 C-3.01 5 -2.02 5 -1 5 C-0.67 3.35 -0.34 1.7 0 0 Z " fill="#21D3C3" transform="translate(204,28)"/>
<path d="M0 0 C2.4375 0.1875 2.4375 0.1875 5 1 C6.3125 3.0625 6.3125 3.0625 7 5 C4.525 4.01 4.525 4.01 2 3 C1.67 3.66 1.34 4.32 1 5 C-1.97 4.67 -4.94 4.34 -8 4 C-8 3.67 -8 3.34 -8 3 C-6.865625 2.690625 -5.73125 2.38125 -4.5625 2.0625 C-1.21224901 1.37075469 -1.21224901 1.37075469 0 0 Z " fill="#8EACD2" transform="translate(28,371)"/>
<path d="M0 0 C1.0725 0.165 2.145 0.33 3.25 0.5 C7.03028752 1.08810915 7.03028752 1.08810915 11 1 C11 1.66 11 2.32 11 3 C7.12315913 4.19287411 4.08378077 5 0 5 C0 3.35 0 1.7 0 0 Z " fill="#23ABE2" transform="translate(139,295)"/>
<path d="M0 0 C1.49828872 3.88235819 0.43110582 6.43449288 -0.9375 10.25 C-1.31777344 11.32765625 -1.69804687 12.4053125 -2.08984375 13.515625 C-2.39019531 14.33546875 -2.69054687 15.1553125 -3 16 C-3.33 16 -3.66 16 -4 16 C-4.6319296 9.99666876 -2.37544123 5.36595205 0 0 Z " fill="#448ECF" transform="translate(233,272)"/>
<path d="M0 0 C0 0.99 0 1.98 0 3 C-2.64 3.66 -5.28 4.32 -8 5 C-8 3.68 -8 2.36 -8 1 C-5.29120665 -0.35439668 -2.99066732 -0.06501451 0 0 Z " fill="#1FAEE1" transform="translate(192,203)"/>
<path d="M0 0 C1.32 0.66 2.64 1.32 4 2 C4 3.32 4 4.64 4 6 C3.34 6 2.68 6 2 6 C2 6.66 2 7.32 2 8 C-0.7839183 6.60804085 -0.97898997 4.84424221 -2 2 C-1.34 2 -0.68 2 0 2 C0 1.34 0 0.68 0 0 Z " fill="#10D1D3" transform="translate(130,14)"/>
<path d="M0 0 C3.9252025 3.70090521 6.94580156 7.54959656 10 12 C5.57883696 10.64908907 3.51923342 8.86882275 1 5 C0.25 2.1875 0.25 2.1875 0 0 Z " fill="#30BCC9" transform="translate(49,297)"/>
<path d="M0 0 C0.66 0 1.32 0 2 0 C2.99 4.29 3.98 8.58 5 13 C4.34 12.67 3.68 12.34 3 12 C2.375 9.4375 2.375 9.4375 2 7 C1.01 6.67 0.02 6.34 -1 6 C-0.67 4.02 -0.34 2.04 0 0 Z " fill="#29C8CE" transform="translate(35,265)"/>
<path d="M0 0 C0.77601562 0.27328125 1.55203125 0.5465625 2.3515625 0.828125 C4.375 1.75 4.375 1.75 6.375 3.75 C1.13619922 3.19854729 -3.59850697 2.32077907 -8.625 0.75 C-5.27574485 -1.36048955 -3.68346258 -1.35512001 0 0 Z " fill="#3EAACD" transform="translate(98.625,352.25)"/>
<path d="M0 0 C5.94 0.33 11.88 0.66 18 1 C18 1.33 18 1.66 18 2 C13.05 2 8.1 2 3 2 C3.33 2.66 3.66 3.32 4 4 C3.01 4 2.02 4 1 4 C0.67 2.68 0.34 1.36 0 0 Z " fill="#1AD6C9" transform="translate(15,233)"/>
<path d="M0 0 C0.33 0.66 0.66 1.32 1 2 C2.65 2 4.3 2 6 2 C3.7448078 4.2551922 1.9952413 4.97723468 -1 6 C-1.99 6 -2.98 6 -4 6 C-2.84826645 3.53199953 -1.95216435 1.95216435 0 0 Z " fill="#31B4D2" transform="translate(165,185)"/>
<path d="M0 0 C2 3 2 3 2 5 C3.32 5.66 4.64 6.32 6 7 C2.25 9 2.25 9 0 9 C-1.125 2.25 -1.125 2.25 0 0 Z " fill="#9EC9F0" transform="translate(18,382)"/>
<path d="M0 0 C1.32 0 2.64 0 4 0 C3.34 1.65 2.68 3.3 2 5 C1.34 5 0.68 5 0 5 C-0.33 6.32 -0.66 7.64 -1 9 C-1.66 9 -2.32 9 -3 9 C-3 8.01 -3 7.02 -3 6 C-2.34 6 -1.68 6 -1 6 C-1.33 5.01 -1.66 4.02 -2 3 C-1.34 2.01 -0.68 1.02 0 0 Z " fill="#9FC0E9" transform="translate(46,373)"/>
<path d="M0 0 C1.32 0.66 2.64 1.32 4 2 C4 2.99 4 3.98 4 5 C3.34 5 2.68 5 2 5 C1.67 5.66 1.34 6.32 1 7 C-0.65 5.35 -2.3 3.7 -4 2 C-2.68 2 -1.36 2 0 2 C0 1.34 0 0.68 0 0 Z " fill="#92B3D7" transform="translate(168,373)"/>
<path d="M0 0 C-0.33 0.99 -0.66 1.98 -1 3 C-3.8914086 4.1194613 -6.67762612 4.10768197 -9.75 4.0625 C-10.54921875 4.05347656 -11.3484375 4.04445313 -12.171875 4.03515625 C-12.77515625 4.02355469 -13.3784375 4.01195312 -14 4 C-9.70669369 1.70895313 -4.92247262 0 0 0 Z " fill="#3F9DD0" transform="translate(157,333)"/>
<path d="M0 0 C3.3 0 6.6 0 10 0 C10 0.66 10 1.32 10 2 C8.02 2.33 6.04 2.66 4 3 C4 2.34 4 1.68 4 1 C2.35 2.32 0.7 3.64 -1 5 C-0.67 3.35 -0.34 1.7 0 0 Z " fill="#12E2CC" transform="translate(70,125)"/>
<path d="M0 0 C0.71484375 1.734375 0.71484375 1.734375 1 4 C-0.43359375 6.140625 -0.43359375 6.140625 -2.4375 8.25 C-3.09621094 8.95640625 -3.75492188 9.6628125 -4.43359375 10.390625 C-4.95050781 10.92171875 -5.46742188 11.4528125 -6 12 C-6 8.36804504 -5.04546845 7.25286089 -3 4.3125 C-2.443125 3.50425781 -1.88625 2.69601563 -1.3125 1.86328125 C-0.879375 1.24839844 -0.44625 0.63351563 0 0 Z " fill="#30BCC7" transform="translate(164,28)"/>
<path d="M0 0 C1.875 0.3125 1.875 0.3125 4 1 C6 4 6 4 5.625 6.1875 C5.41875 6.785625 5.2125 7.38375 5 8 C4.67 7.34 4.34 6.68 4 6 C1.97536745 5.34786708 1.97536745 5.34786708 0 5 C0 3.35 0 1.7 0 0 Z " fill="#21AEE0" transform="translate(81,25)"/>
<path d="M0 0 C2 3.75 2 3.75 2 6 C-0.31 6.66 -2.62 7.32 -5 8 C-3.62845496 5.04590299 -2.01136276 2.55991624 0 0 Z " fill="#28B7CF" transform="translate(114,23)"/>
<path d="M0 0 C-2.84685749 2.31966166 -5.4763875 3.91581154 -9 5 C-9.99 4.67 -10.98 4.34 -12 4 C-11.360625 3.896875 -10.72125 3.79375 -10.0625 3.6875 C-9.381875 3.460625 -8.70125 3.23375 -8 3 C-7.67 2.01 -7.34 1.02 -7 0 C-4.3333581 -1.33332095 -2.83319697 -0.67102033 0 0 Z " fill="#4397D5" transform="translate(176,346)"/>
<path d="M0 0 C1.32 0.33 2.64 0.66 4 1 C4 2.98 4 4.96 4 7 C3.01 7 2.02 7 1 7 C0.67 4.69 0.34 2.38 0 0 Z " fill="#06DACC" transform="translate(18,264)"/>
<path d="M0 0 C0.33 0.66 0.66 1.32 1 2 C1.66 2 2.32 2 3 2 C3.33 2.99 3.66 3.98 4 5 C-4.57142857 4.14285714 -4.57142857 4.14285714 -8 2 C-5.69 2 -3.38 2 -1 2 C-0.67 1.34 -0.34 0.68 0 0 Z " fill="#0DD7CD" transform="translate(63,198)"/>
<path d="M0 0 C0.33 0.66 0.66 1.32 1 2 C2.32488113 2.36548445 3.66018514 2.6937566 5 3 C6.3479743 3.63654342 7.68596724 4.29605388 9 5 C9 5.66 9 6.32 9 7 C4.49197399 5.74194623 1.5087188 4.09592835 -2 1 C-1.34 0.67 -0.68 0.34 0 0 Z " fill="#3EB6CD" transform="translate(71,341)"/>
<path d="M0 0 C0.515625 0.268125 1.03125 0.53625 1.5625 0.8125 C4.66401415 2.32349407 7.82262806 3.65572726 11 5 C10.67 5.99 10.34 6.98 10 8 C2.42857143 4 2.42857143 4 0 0 Z " fill="#2FB6C7" transform="translate(76,290)"/>
<path d="M0 0 C0.33 0 0.66 0 1 0 C2.28571429 8.57142857 2.28571429 8.57142857 1 12 C0.34 12 -0.32 12 -1 12 C-2.45606519 7.47907032 -1.27032841 4.48351204 0 0 Z " fill="#3298E2" transform="translate(234,260)"/>
<path d="M0 0 C-0.99 0.33 -1.98 0.66 -3 1 C-3.33 1.99 -3.66 2.98 -4 4 C-6.64 4 -9.28 4 -12 4 C-9.94577945 1.94577945 -8.66990976 1.31862408 -6 0.3125 C-5.29875 0.04050781 -4.5975 -0.23148438 -3.875 -0.51171875 C-2 -1 -2 -1 0 0 Z " fill="#2AC0C9" transform="translate(130,185)"/>
<path d="M0 0 C0.33 1.32 0.66 2.64 1 4 C-2.54950034 5.16306443 -5.55823948 4.92365049 -9.25 4.5625 C-10.32765625 4.46066406 -11.4053125 4.35882813 -12.515625 4.25390625 C-13.33546875 4.17011719 -14.1553125 4.08632812 -15 4 C-15 3.67 -15 3.34 -15 3 C-14.00097656 2.95101562 -13.00195312 2.90203125 -11.97265625 2.8515625 C-10.68230469 2.77679688 -9.39195312 2.70203125 -8.0625 2.625 C-6.77472656 2.55539063 -5.48695313 2.48578125 -4.16015625 2.4140625 C-3.11730469 2.27742187 -2.07445312 2.14078125 -1 2 C-0.67 1.34 -0.34 0.68 0 0 Z " fill="#439DC1" transform="translate(237,168)"/>
<path d="M0 0 C2.86724686 0.57344937 3.8614515 0.8614515 6 3 C6.125 6.125 6.125 6.125 6 9 C5.34 8.67 4.68 8.34 4 8 C3.855625 7.38125 3.71125 6.7625 3.5625 6.125 C2.90072657 3.62496703 1.87768792 2.71441071 0 1 C0 0.67 0 0.34 0 0 Z " fill="#92BBED" transform="translate(29,373)"/>
<path d="M0 0 C0.99 0.66 1.98 1.32 3 2 C3 3.32 3 4.64 3 6 C1.68 6.33 0.36 6.66 -1 7 C-1.625 4.625 -1.625 4.625 -2 2 C-1.34 1.34 -0.68 0.68 0 0 Z " fill="#25A6E0" transform="translate(170,272)"/>
<path d="M0 0 C0.33 0 0.66 0 1 0 C1 3.3 1 6.6 1 10 C0.34 10 -0.32 10 -1 10 C-2.0625 8.1875 -2.0625 8.1875 -3 6 C-2.67 5.01 -2.34 4.02 -2 3 C-1.34 3.33 -0.68 3.66 0 4 C-0.33 3.01 -0.66 2.02 -1 1 C-0.67 0.67 -0.34 0.34 0 0 Z " fill="#2C97E4" transform="translate(235,248)"/>
<path d="M0 0 C-3.81516464 1.30062431 -7.27561763 0.89369853 -11.25 0.5625 C-12.51328125 0.46066406 -13.7765625 0.35882813 -15.078125 0.25390625 C-16.52445312 0.12822266 -16.52445312 0.12822266 -18 0 C-18 -0.33 -18 -0.66 -18 -1 C-15.56304285 -1.22181406 -13.126474 -1.42791119 -10.6875 -1.625 C-9.99720703 -1.68945312 -9.30691406 -1.75390625 -8.59570312 -1.8203125 C-4.7440028 -2.11802847 -3.31145584 -2.20763723 0 0 Z " fill="#2BBDD1" transform="translate(136,212)"/>
<path d="M0 0 C-0.33 1.32 -0.66 2.64 -1 4 C-1.99 3.67 -2.98 3.34 -4 3 C-4.99 3.33 -5.98 3.66 -7 4 C-6.67 2.68 -6.34 1.36 -6 0 C-2.25 -1.125 -2.25 -1.125 0 0 Z " fill="#1FAEE1" transform="translate(112,36)"/>
<path d="M0 0 C1.32 0.66 2.64 1.32 4 2 C2.11192137 4.69725519 0.80175356 6.13216429 -2 8 C-2 6.68 -2 5.36 -2 4 C-1.34 4 -0.68 4 0 4 C0 2.68 0 1.36 0 0 Z " fill="#2999E8" transform="translate(219,256)"/>
<path d="M0 0 C2.96404505 2.80804268 5.44499019 5.18315774 7 9 C5.68 9 4.36 9 3 9 C2.01 6.03 1.02 3.06 0 0 Z " fill="#37A1CA" transform="translate(89,31)"/>
<path d="M0 0 C2.97 0 5.94 0 9 0 C6 2 6 2 3 2 C3.33 3.32 3.66 4.64 4 6 C2.62437146 4.71034824 1.29233607 3.37310707 0 2 C0 1.34 0 0.68 0 0 Z " fill="#409ACC" transform="translate(43,23)"/>
<path d="M0 0 C1.125 3.75 1.125 3.75 0 6 C-0.66 6 -1.32 6 -2 6 C-2 6.66 -2 7.32 -2 8 C-2.99 8 -3.98 8 -5 8 C-3.62845496 5.04590299 -2.01136276 2.55991624 0 0 Z " fill="#24C3C9" transform="translate(122,12)"/>
<path d="M0 0 C3.08089673 2.77280706 4.68775452 5.06326356 6 9 C4.02 9 2.04 9 0 9 C0.99 8.67 1.98 8.34 3 8 C2.505 7.05125 2.01 6.1025 1.5 5.125 C0 2 0 2 0 0 Z " fill="#96AED1" transform="translate(89,392)"/>
<path d="M0 0 C0.66 0 1.32 0 2 0 C2.80967438 2.91482778 3.21845993 4.46113217 2.0625 7.3125 C1.5365625 8.1478125 1.5365625 8.1478125 1 9 C0.34 9 -0.32 9 -1 9 C-0.67 6.03 -0.34 3.06 0 0 Z " fill="#23ABE0" transform="translate(165,249)"/>
<path d="M0 0 C0.66 0.33 1.32 0.66 2 1 C1.67 1.99 1.34 2.98 1 4 C-1.97 4 -4.94 4 -8 4 C-5.31143836 2.20762558 -3.0466145 1.01553817 0 0 Z " fill="#32B7C9" transform="translate(151,175)"/>
<path d="M0 0 C1 2 1 2 0.375 4.5625 C-1 7 -1 7 -3.625 7.8125 C-4.40875 7.874375 -5.1925 7.93625 -6 8 C-4.02 5.36 -2.04 2.72 0 0 Z " fill="#4392CD" transform="translate(199,301)"/>
<path d="M0 0 C1.32 0.66 2.64 1.32 4 2 C-1.2734375 5.22265625 -1.2734375 5.22265625 -3 6 C-3.66 5.67 -4.32 5.34 -5 5 C-3.35 3.35 -1.7 1.7 0 0 Z " fill="#39A1CE" transform="translate(155,292)"/>
<path d="M0 0 C0.66 0 1.32 0 2 0 C3.6875 2.3125 3.6875 2.3125 5 5 C4.67 5.99 4.34 6.98 4 8 C0 3.375 0 3.375 0 0 Z " fill="#98C0EB" transform="translate(87,392)"/>
<path d="M0 0 C1.98 0.495 1.98 0.495 4 1 C4 1.66 4 2.32 4 3 C2 5 2 5 -1 7 C-0.67 4.69 -0.34 2.38 0 0 Z " fill="#2D95ED" transform="translate(201,320)"/>
<path d="M0 0 C0.99 0.33 1.98 0.66 3 1 C0.63707344 3.52588702 -0.66462511 4.88820837 -4 6 C-4.33 4.68 -4.66 3.36 -5 2 C-3.68 2 -2.36 2 -1 2 C-0.67 1.34 -0.34 0.68 0 0 Z " fill="#37A1C9" transform="translate(163,287)"/>
<path d="M0 0 C0.66 0.33 1.32 0.66 2 1 C1.34 3.31 0.68 5.62 0 8 C-0.33 7.34 -0.66 6.68 -1 6 C-1.66 6 -2.32 6 -3 6 C-2.67 5.01 -2.34 4.02 -2 3 C-1.34 3 -0.68 3 0 3 C0 2.01 0 1.02 0 0 Z " fill="#2D93EB" transform="translate(228,281)"/>
<path d="M0 0 C2.31 0 4.62 0 7 0 C6.67 0.99 6.34 1.98 6 3 C3.03 2.505 3.03 2.505 0 2 C0 1.34 0 0.68 0 0 Z " fill="#21AAE8" transform="translate(221,168)"/>
<path d="M0 0 C2.5 2.3125 2.5 2.3125 5 5 C5 5.99 5 6.98 5 8 C3.0625 7.375 3.0625 7.375 1 6 C0.25 2.875 0.25 2.875 0 0 Z " fill="#29C2C9" transform="translate(139,24)"/>
<path d="M0 0 C0.66 0 1.32 0 2 0 C2 2.31 2 4.62 2 7 C1.34 7 0.68 7 0 7 C-0.38133299 5.0085944 -0.71325582 3.00720923 -1 1 C-0.67 0.67 -0.34 0.34 0 0 Z " fill="#95C0ED" transform="translate(17,392)"/>
<path d="M0 0 C0.66 0 1.32 0 2 0 C2.6875 2.25 2.6875 2.25 3 5 C1.5625 7.3125 1.5625 7.3125 0 9 C-1.53445094 5.93109813 -0.54984289 3.29905734 0 0 Z " fill="#9CC3EC" transform="translate(172,381)"/>
<path d="M0 0 C2.625 -0.1875 2.625 -0.1875 5 0 C5 0.99 5 1.98 5 3 C3.68 2.67 2.36 2.34 1 2 C0.67 2.99 0.34 3.98 0 5 C-0.66 4.34 -1.32 3.68 -2 3 C-1.34 2.01 -0.68 1.02 0 0 Z " fill="#2A99E7" transform="translate(182,337)"/>
<path d="M0 0 C2.32472205 2.85306797 3.7508258 5.54074837 5 9 C2 8 2 8 0.8125 6.1875 C0 4 0 4 0 0 Z " fill="#2DC2C5" transform="translate(43,286)"/>
<path d="M0 0 C0.99 0 1.98 0 3 0 C3 1.65 3 3.3 3 5 C2.01 5.33 1.02 5.66 0 6 C0 4.02 0 2.04 0 0 Z " fill="#1DA9E8" transform="translate(234,165)"/>
</svg>
